<svg width="48" height="41" viewBox="0 0 48 41" fill="none" xmlns="http://www.w3.org/2000/svg">
<path d="M36.8065 22.6793C36.8065 29.6125 31.0968 35.2329 24.0536 35.2329C17.0104 35.2329 11.3008 29.6125 11.3008 22.6793C11.3008 15.7462 17.0104 2.4541 24.0536 2.4541C31.0968 2.4541 36.8065 15.7462 36.8065 22.6793Z" fill="#252525"/>
<path d="M35.6402 26.5764C33.1656 27.6566 31.9331 28.3298 31.3283 28.7082C31.1338 28.6968 30.9895 28.7159 30.8709 28.7838C30.3413 29.604 23.568 33.2434 23.5635 35.0691C23.6486 35.4352 26.7517 35.93 28.7137 35.465C30.6756 35.0001 32.7846 33.6026 33.3322 34.4069C33.4495 34.5792 33.4584 34.8339 33.3597 35.0691C32.877 36.2196 31.7074 37.6384 31.4368 39.2105C31.3334 39.8111 31.2204 40.5741 31.6396 40.696C32.055 40.8169 33.3747 41.0041 34.9087 40.2913C36.5945 39.5079 39.5999 37.9353 41.0322 37.1995C42.0974 36.6523 43.5588 35.746 43.6419 34.5507C43.6965 33.7648 43.7307 32.9233 43.3066 32.7392C42.859 32.5451 42.3207 32.4884 41.8544 32.6852C41.39 32.8811 40.8748 33.1848 40.2532 33.7014C38.5892 35.0841 37.643 36.6102 36.6926 36.5857C36.4573 36.5796 36.0424 36.998 36.1108 36.2774C36.1791 35.5568 36.9367 32.495 38.0682 30.9457C38.7296 30.0402 40.368 28.7526 39.9565 27.2914C39.789 26.6968 39.5644 26.0789 39.0755 26.0061C38.5172 25.923 37.52 25.7558 35.6402 26.5764Z" fill="#252525"/>
<path d="M42.0433 33.3913C42.0433 33.3892 42.0433 33.3871 42.0433 32.716C42.0433 32.0448 42.0433 30.7046 42.0395 29.9951C42.0357 29.2855 42.0282 29.2472 42.0212 29.1322C42.0143 29.0172 42.0082 28.8267 42.002 28.6797" stroke="#252525" stroke-width="2" stroke-linecap="round"/>
<path d="M43.166 33.3045C43.1664 33.2233 43.1814 32.991 43.4212 32.5437C43.5864 32.2354 43.9278 31.6921 44.1489 31.2927C44.4737 30.661 44.596 30.3927 44.6364 30.3097C44.6614 30.2557 44.6952 30.1774 44.7525 30.084" stroke="#252525" stroke-width="2" stroke-linecap="round"/>
<path d="M43.4355 34.4944C43.4369 34.4931 43.4382 34.4919 43.8509 34.1871C44.2635 33.8822 45.0873 33.2738 45.5239 32.9492C45.9604 32.6246 45.9846 32.6024 46.0228 32.5721C46.061 32.5419 46.1123 32.5043 46.2287 32.4365" stroke="#252525" stroke-width="2" stroke-linecap="round"/>
<path d="M42.2451 35.8193C42.3063 35.8163 42.4553 35.7972 42.764 35.6933C43.0268 35.6048 43.5012 35.4336 43.9583 35.2824C44.8361 34.9922 45.3211 34.852 45.4596 34.8001C45.6985 34.7186 45.9661 34.6261 46.1736 34.5541C46.2621 34.5252 46.3163 34.5115 46.4682 34.4863" stroke="#252525" stroke-width="2" stroke-linecap="round"/>
<path d="M11.8285 26.5764C14.3031 27.6566 15.5356 28.3298 16.1405 28.7082C16.3349 28.6968 16.4792 28.7159 16.5978 28.7838C17.1275 29.604 23.9007 33.2434 23.9053 35.0691C23.8202 35.4352 20.7171 35.93 18.7551 35.465C16.7931 35.0001 14.6842 33.6026 14.1366 34.4069C14.0192 34.5792 14.0104 34.8339 14.1091 35.0691C14.5917 36.2196 15.7613 37.6384 16.032 39.2105C16.1354 39.8111 16.2484 40.5741 15.8292 40.696C15.4137 40.8169 14.094 41.0041 12.5601 40.2913C10.8742 39.5079 7.8688 37.9353 6.43655 37.1995C5.37138 36.6523 3.90992 35.746 3.82686 34.5507C3.77225 33.7648 3.73803 32.9233 4.16215 32.7392C4.60973 32.5451 5.14808 32.4884 5.61439 32.6852C6.07872 32.8811 6.59391 33.1848 7.21556 33.7014C8.87959 35.0841 9.82572 36.6102 10.7761 36.5857C11.0114 36.5796 11.4263 36.998 11.358 36.2774C11.2896 35.5568 10.5321 32.495 9.40055 30.9457C8.73919 30.0402 7.10075 28.7526 7.5123 27.2914C7.67979 26.6968 7.90439 26.0789 8.39325 26.0061C8.95156 25.923 9.94872 25.7558 11.8285 26.5764Z" fill="#252525"/>
<path d="M5.42543 33.3913C5.42543 33.3892 5.42543 33.3871 5.42543 32.716C5.42543 32.0448 5.42543 30.7046 5.42922 29.9951C5.43301 29.2855 5.4406 29.2472 5.44754 29.1322C5.45448 29.0172 5.46055 28.8267 5.4668 28.6797" stroke="#252525" stroke-width="2" stroke-linecap="round"/>
<path d="M4.30273 33.3045C4.3024 33.2233 4.2873 32.991 4.04759 32.5437C3.8824 32.2354 3.54091 31.6921 3.31983 31.2927C2.99506 30.661 2.87271 30.3927 2.8323 30.3097C2.80739 30.2557 2.77356 30.1774 2.71622 30.084" stroke="#252525" stroke-width="2" stroke-linecap="round"/>
<path d="M4.0332 34.4944C4.03185 34.4931 4.03051 34.4919 3.61788 34.1871C3.20526 33.8822 2.3814 33.2738 1.94488 32.9492C1.50835 32.6246 1.48413 32.6024 1.44596 32.5721C1.4078 32.5419 1.35643 32.5043 1.24005 32.4365" stroke="#252525" stroke-width="2" stroke-linecap="round"/>
<path d="M5.22363 35.8193C5.16247 35.8163 5.01347 35.7972 4.70478 35.6933C4.44198 35.6048 3.96756 35.4336 3.51042 35.2824C2.63262 34.9922 2.14763 34.852 2.00914 34.8001C1.77027 34.7186 1.50263 34.6261 1.29512 34.5541C1.20668 34.5252 1.15249 34.5115 1.00052 34.4863" stroke="#252525" stroke-width="2" stroke-linecap="round"/>
<path d="M34.008 10.9729C33.7173 10.8774 33.4275 10.7874 33.1699 10.7113C33.0228 10.8186 32.9451 10.8933 32.8839 10.9568C32.7692 11.0828 32.627 11.4505 32.6047 12.0392C32.815 12.6038 33.1075 13.2331 34.1015 13.7987C34.8826 14.2432 35.4663 14.5869 35.9844 14.82C36.89 15.2273 37.3383 15.3485 38.2783 15.7047C39.2182 16.0609 39.5607 16.0475 39.7498 15.9372C39.9388 15.8269 40.6909 14.7275 40.976 14.0774C41.2611 13.4273 41.3917 12.6826 41.4665 11.5202C41.5412 10.3578 41.4373 9.77958 41.3212 9.09189C41.0967 7.76203 40.8118 6.2323 40.2408 6.07865C40.1491 6.05399 40.0099 6.02609 39.9319 6.08398C39.5888 6.33853 39.0463 7.04949 38.6451 9.00133C38.541 9.50741 38.6201 9.75471 38.4256 10.2149C38.2311 10.6752 37.7855 11.3729 37.5699 11.4784C37.3543 11.5839 37.0605 11.6231 36.468 11.5508C35.822 11.4719 34.8967 11.2651 34.008 10.9729Z" fill="#252525"/>
<path d="M39.6319 7.82338C39.6289 7.82266 39.6258 7.82194 39.3167 7.58271C39.0075 7.34347 38.3923 6.86574 38.0665 6.61339C37.6863 6.31884 37.6136 6.26042 37.453 6.13891C37.2881 6.0141 37.0882 5.84397 36.8891 5.68502C36.8396 5.65082 36.7747 5.60753 36.7326 5.57781C36.6905 5.54809 36.6732 5.53326 36.6211 5.49414" stroke="#252525" stroke-width="2" stroke-linecap="round"/>
<path d="M40.0239 7.39094C40.0239 7.25243 40.0012 6.86286 39.8042 6.24067C39.4822 5.31603 39.0825 4.36819 38.9543 4.11221C38.9048 4.0102 38.8868 3.96482 38.8672 3.9541" stroke="#252525" stroke-width="2" stroke-linecap="round"/>
<path d="M40.291 7.67332C40.2917 7.49779 40.3157 7.03539 40.6485 6.15747C41.2364 4.96208 41.429 4.52526 41.4904 4.40975C41.5168 4.35426 41.5333 4.30512 41.557 4.27441" stroke="#252525" stroke-width="2" stroke-linecap="round"/>
<path d="M40.4238 8.6188C40.459 8.54702 41.1055 7.76374 42.0296 6.78779C42.2133 6.58648 42.3517 6.41085 42.4365 6.29984C42.5213 6.18883 42.5481 6.14777 42.5758 6.10547" stroke="#252525" stroke-width="2" stroke-linecap="round"/>
<path d="M13.9832 11.1009C14.2739 11.0053 14.5637 10.9154 14.8213 10.8393C14.9684 10.9465 15.0461 11.0212 15.1073 11.0847C15.222 11.2107 15.3642 11.5784 15.3865 12.1672C15.1762 12.7317 14.8837 13.3611 13.8897 13.9266C13.1086 14.3711 12.5249 14.7149 12.0068 14.9479C11.1012 15.3552 10.6529 15.4764 9.71294 15.8327C8.773 16.1889 8.43054 16.1754 8.24146 16.0651C8.05238 15.9549 7.30029 14.8555 7.01522 14.2053C6.73015 13.5552 6.59949 12.8105 6.52473 11.6481C6.44996 10.4858 6.55393 9.90751 6.67003 9.21982C6.89454 7.88996 7.17946 6.36023 7.75045 6.20658C7.84209 6.18192 7.98131 6.15402 8.05933 6.21191C8.40242 6.46646 8.94489 7.17741 9.34615 9.12926C9.4502 9.63534 9.37107 9.88264 9.56557 10.3429C9.76006 10.8031 10.2057 11.5009 10.4213 11.6064C10.6369 11.7118 10.9307 11.7511 11.5232 11.6787C12.1692 11.5998 13.0945 11.393 13.9832 11.1009Z" fill="#252525"/>
<path d="M8.35934 7.95131C8.36235 7.95059 8.36536 7.94987 8.67454 7.71064C8.98371 7.4714 9.59896 6.99367 9.92472 6.74132C10.305 6.44677 10.3776 6.38835 10.5382 6.26684C10.7031 6.14203 10.903 5.9719 11.1021 5.81294C11.1516 5.77875 11.2165 5.73546 11.2586 5.70574C11.3007 5.67602 11.318 5.66119 11.3701 5.62207" stroke="#252525" stroke-width="2" stroke-linecap="round"/>
<path d="M7.96729 7.5179C7.96729 7.37938 7.99 6.98981 8.18705 6.36763C8.50901 5.44299 8.90873 4.49515 9.0369 4.23916C9.08642 4.13715 9.10445 4.09177 9.12402 4.08105" stroke="#252525" stroke-width="2" stroke-linecap="round"/>
<path d="M7.7002 7.80125C7.69947 7.62572 7.67554 7.16332 7.34274 6.2854C6.75481 5.09001 6.56222 4.65319 6.50081 4.53768C6.47446 4.48219 6.45789 4.43305 6.43421 4.40234" stroke="#252525" stroke-width="2" stroke-linecap="round"/>
<path d="M7.56738 8.74673C7.53225 8.67495 6.88567 7.89167 5.96158 6.91572C5.77795 6.71441 5.63948 6.53878 5.55472 6.42777C5.46995 6.31676 5.44307 6.2757 5.41538 6.2334" stroke="#252525" stroke-width="2" stroke-linecap="round"/>
<path d="M17.5842 6.0928C17.4366 6.53168 17.3634 7.50477 17.3622 7.88194C16.7332 8.90488 18.0391 6.99119 18.108 7.02108C18.2775 7.05041 18.5487 7.00375 20.1383 7.09589C20.9401 7.21074 22.1599 7.43367 22.964 7.56814C23.7681 7.70262 24.1451 7.74728 24.9903 7.76191C25.8356 7.77653 27.1107 7.77008 27.7847 7.7485C28.5306 7.72462 29.3303 7.85633 29.8415 7.66853C29.9668 7.62252 30.1823 7.53756 30.2546 7.32258C30.4228 6.82229 30.3264 6.08506 30.2905 5.89701C30.2546 5.70895 30.2905 5.70895 29.9392 5.13616C29.5879 4.56337 29.5176 4.56189 29.2035 4.31411C28.9394 4.10587 28.3165 3.90237 28.0502 3.71331C27.7226 3.48065 27.4594 3.31783 27.3039 3.03124C27.127 2.70534 26.9952 2.21732 26.4123 1.92509C25.7512 1.5936 24.911 0.773865 23.808 1.05932C22.9997 1.26852 22.2984 1.77385 21.957 2.11003C21.6358 2.42633 21.5205 2.6788 21.2217 2.98177C20.9959 3.2108 20.7053 3.37523 20.4 3.54135C20.0116 3.75271 19.6807 3.88283 19.3142 4.0989C18.8334 4.38239 18.5349 4.6242 18.1621 5.13616C17.9355 5.44733 17.7008 5.7464 17.5842 6.0928Z" fill="#252525" stroke="#252525" stroke-width="2" stroke-linecap="round"/>
</svg>
