<svg width="46" height="14" viewBox="0 0 46 14" fill="none" xmlns="http://www.w3.org/2000/svg">
<path d="M12.3247 5.46555C16.1219 6.24636 20.0439 8.09061 21.0495 8.70149C23.419 10.1409 24.7577 10.6981 24.935 11.3247C25.1124 11.9512 24.9929 12.6504 23.7276 13C13.8766 12.8385 3.5149 12.8002 1.37769 8.63183C0.816884 7.53807 0.739336 5.71128 2.13748 5.45067C5.78458 4.77086 9.71973 4.9299 12.3247 5.46555Z" fill="#252525" stroke="#252525" stroke-width="2" stroke-linecap="round"/>
<path d="M27.3479 9.3115C25.1287 11.1092 24.5504 12.2396 24.0953 12.7322C23.5012 13.3753 25.816 12.7024 27.4101 12.3545C29.0042 12.0067 31.2886 11.3648 34.1498 10.216C37.0111 9.06728 39.658 8.48048 41.3828 7.63057C43.1075 6.78066 43.9158 5.679 44.0082 5.57725C44.4424 5.09928 44.9386 4.62153 44.9649 4.11362C44.9911 3.60571 45.1153 2.26558 44.6587 1.65806C44.5062 1.45513 44.3345 1.31628 44.1057 1.27887C43.8277 1.23341 43.3389 0.873724 41.3827 1.04674C40.5188 1.12315 39.1074 1.52887 38.4539 1.75808C37.8004 1.98729 37.1252 2.29933 34.9656 3.78429C32.8061 5.26925 29.223 7.79241 27.3479 9.3115Z" fill="#252525" stroke="#252525" stroke-width="2" stroke-linecap="round"/>
</svg>
