<svg width="32" height="38" viewBox="0 0 32 38" fill="none" xmlns="http://www.w3.org/2000/svg">
<path d="M0.832404 31.6437C0.0282952 31.7969 -0.297529 32.7912 0.325651 33.322C2.19345 34.9128 4.35669 36.131 6.69867 36.9028C9.66626 37.8807 12.8292 38.1117 15.9074 37.5753C18.9856 37.0388 21.8839 35.7515 24.3458 33.8274C26.8076 31.9032 28.7569 29.4016 30.021 26.5442C31.2851 23.6868 31.825 20.5617 31.5929 17.4457C31.3607 14.3298 30.3637 11.3192 28.6901 8.68063C27.0165 6.04206 24.7181 3.85695 21.9983 2.31885C19.843 1.09998 17.4758 0.317239 15.0316 0.00781476C14.2253 -0.0942659 13.7076 0.802475 14.1248 1.50002C16.4722 5.4248 21.8132 15.5124 18.9402 21.8365C16.0819 28.1283 5.28509 30.7952 0.832404 31.6437Z" fill="#F1C339"/>
</svg>
