<svg width="50" height="50" viewBox="0 0 50 50" fill="none" xmlns="http://www.w3.org/2000/svg">
<circle cx="24.5498" cy="25.6816" r="14" fill="#F89A2E"/>
<path d="M24.2168 1V8.42356" stroke="#F89A2E" stroke-width="2" stroke-linecap="round"/>
<path d="M24.7598 41.3896V48.7968" stroke="#F89A2E" stroke-width="2" stroke-linecap="round"/>
<path d="M1 25.209C1.01256 25.209 1.02512 25.209 2.14607 25.209C3.26702 25.209 5.49597 25.209 7.87461 25.2317" stroke="#F89A2E" stroke-width="2" stroke-linecap="round"/>
<path d="M40.4414 25.6357H48.8847" stroke="#F89A2E" stroke-width="2" stroke-linecap="round"/>
<path d="M6.12207 5.62207C6.21351 5.65524 7.08586 6.27882 8.89607 7.78971C10.0019 8.74435 11.488 10.0805 12.2922 10.8003C13.0965 11.52 13.174 11.5828 13.396 11.7821" stroke="#F89A2E" stroke-width="2" stroke-linecap="round"/>
<path d="M36.1377 13.4071C36.1377 13.4104 36.1377 13.4137 37.0447 12.6639C37.9517 11.9141 39.7656 10.4111 40.9758 9.33722C42.186 8.26339 42.7374 7.66428 43.0656 7.32215C43.3937 6.98002 43.482 6.91302 43.6347 6.82129" stroke="#F89A2E" stroke-width="2" stroke-linecap="round"/>
<path d="M36.0137 36.9707C36.0317 36.9828 36.5576 37.4317 37.5744 38.3318C38.0819 38.7811 38.5426 39.2481 39.3372 39.9466C40.1318 40.6452 41.2386 41.5696 41.9263 42.1344C42.6139 42.6992 42.8487 42.8764 43.1327 43.0977" stroke="#F89A2E" stroke-width="2" stroke-linecap="round"/>
<path d="M12.3232 36.3838C12.3109 36.3838 11.6435 36.9267 10.606 37.7857C10.1489 38.1641 9.35197 38.9076 8.08035 40.0229C7.21434 40.7158 6.60634 41.2319 6.13446 41.7105C5.93464 41.916 5.8153 42.0455 5.66797 42.2126" stroke="#F89A2E" stroke-width="2" stroke-linecap="round"/>
</svg>
