<svg width="27" height="44" viewBox="0 0 27 44" fill="none" xmlns="http://www.w3.org/2000/svg">
<path d="M10.8176 5.45759C12.3081 2.65308 12.6873 2.00939 12.7006 1.98965C13.3711 0.993657 13.6875 0.625265 13.8711 0.492687C14.0547 0.359979 14.2144 -0.459802 15.1072 0.359502C15.9999 1.17881 18.6143 8.25936 19.9744 11.7918C20.6584 13.5683 22.546 16.7916 24.4515 20.7644C25.7964 23.5683 26.7379 25.8582 26.6911 28.6311C26.588 34.7369 26.4746 36.6994 24.8992 38.6462C23.4422 40.4468 22.2373 41.8696 18.5967 42.5993C15.847 43.1503 11.9126 44.2229 8.09955 42.2513C4.14262 40.2053 1.55657 38.1106 0.610986 35.9839C0.231538 35.1304 -0.353416 32.4556 0.281443 28.8626C1.08118 24.3366 2.70069 20.1426 4.56632 17.4014C5.56805 15.9295 7.7409 11.2468 10.8176 5.45759Z" fill="#4BA0D5"/>
</svg>
