<svg width="60" height="60" viewBox="0 0 60 60" fill="none" xmlns="http://www.w3.org/2000/svg">
<path d="M31.5 13C38.8555 13 44.8363 19.0608 44.9961 26.5996C49.5626 27.5526 53 31.7113 53 36.6973C53 42.0397 49.0532 46.4313 44 46.9482V47H17C11.4772 47 7.00005 42.3874 7 36.6973C7 31.0071 11.4772 26.3945 17 26.3945C17.3402 26.3945 17.6764 26.4111 18.0078 26.4453C18.2453 18.9783 24.1949 13.0001 31.5 13Z" fill="#ACD2D8"/>
<mask id="mask0_2707_298" style="mask-type:alpha" maskUnits="userSpaceOnUse" x="7" y="14" width="46" height="33">
<path d="M31.5 14C38.8553 14 44.8352 19.8823 44.9951 27.1992C49.562 28.1239 53 32.1604 53 37C53 42.1853 49.0533 46.4474 44 46.9492V47H17C11.4772 47 7 42.5228 7 37C7 31.4772 11.4772 27 17 27C17.3402 27 17.6764 27.0166 18.0078 27.0498C18.2453 19.8024 24.1948 14 31.5 14Z" fill="#ACD2D8"/>
</mask>
<g mask="url(#mask0_2707_298)">
<path d="M11.2659 45.2742C9.86293 44.5444 9.10677 44.13 9.10234 44.13C9.01108 44.1814 8.53509 44.2097 8.42036 44.2664C8.30563 44.3232 8.147 44.3939 8.06988 44.4795C7.99276 44.5651 7.98867 44.6649 8.01372 44.7418C8.0587 44.88 8.80687 45.7753 10.0824 46.8979C10.7082 47.4487 11.0255 47.665 11.6032 47.8905C12.0182 48.0525 12.6725 48.2885 16.0378 48.88C19.403 49.4716 25.3003 50.3909 29.5477 50.8454C33.7951 51.2999 36.3162 51.2899 38.4977 51.1512C40.6793 51.0125 42.4672 50.7531 44.2771 50.2558C46.0871 49.7586 47.8817 49.0813 48.8724 48.6094C50.1089 48.0204 50.5665 47.7101 51.0056 47.2363C51.5948 46.6004 52.2913 45.8283 52.8715 44.7086C53.634 43.2373 54.0576 42.167 53.9704 42.2282C53.8262 42.3293 53.1604 43.216 51.2955 43.875C50.6319 44.1095 50.2051 44.2119 49.1086 44.217C48.162 44.2214 46.4698 44.2155 45.3789 44.1727C44.2881 44.1299 43.8088 44.0694 43.3775 43.9499C42.5574 43.7228 41.9136 43.526 41.4339 43.186C40.8205 42.7512 39.934 42.0807 39.3496 41.1957C38.86 40.4542 38.7497 39.4911 38.5746 39.7044C38.4033 39.9132 38.1132 40.3288 37.3975 40.8226C36.915 41.1554 36.1766 41.607 35.4974 41.9293C34.8182 42.2517 34.2204 42.4552 33.8219 42.5454C33.2455 42.6758 32.4786 42.7937 31.2717 42.6316C29.8825 42.445 28.7713 42.2647 28.1505 42.009C27.644 41.8003 26.9314 41.4148 26.2463 40.8363C25.863 40.5126 25.4397 39.9254 24.8852 39.2322C24.6778 38.973 24.5623 38.8878 24.3952 39.2026C23.8973 40.1405 23.4764 41.0156 22.8339 41.7473C22.3556 42.292 21.5633 43.1482 20.9247 43.7301C20.2861 44.312 19.8154 44.6107 19.0071 45.001C18.1988 45.3913 17.1063 45.9413 16.2888 46.0935C15.022 46.3293 14.4078 46.3374 14.009 46.2461C13.3581 46.0971 12.4018 45.8651 11.2659 45.2742Z" fill="#5E868C"/>
</g>
<mask id="mask1_2707_298" style="mask-type:alpha" maskUnits="userSpaceOnUse" x="7" y="14" width="46" height="33">
<path d="M31.5 14C38.8553 14 44.8352 19.8823 44.9951 27.1992C49.562 28.1239 53 32.1604 53 37C53 42.1853 49.0533 46.4474 44 46.9492V47H17C11.4772 47 7 42.5228 7 37C7 31.4772 11.4772 27 17 27C17.3402 27 17.6764 27.0166 18.0078 27.0498C18.2453 19.8024 24.1948 14 31.5 14Z" fill="#ACD2D8"/>
</mask>
<g mask="url(#mask1_2707_298)">
<path d="M7.76812 40.7846C7.6287 42.2532 7.62447 42.8139 7.62447 42.819C7.4275 42.9715 7.33741 43.9538 7.21233 44.0438C7.08725 44.1337 7.0161 44.1707 6.92393 44.1837C6.7219 44.1861 5.78661 43.6438 4.785 42.1657C4.51116 41.7616 4.23028 41.2926 3.6801 39.9501C3.12993 38.6077 2.33456 36.457 1.90682 35.1081C1.47907 33.7591 1.42072 33.2281 1.41993 32.2666C1.41914 31.3052 1.47426 29.9543 1.59896 28.8892C1.72366 27.8241 1.91224 27.0679 2.19409 26.2278C2.47594 25.3876 2.84003 24.4909 3.261 23.6803C3.68196 22.8698 4.14575 22.1669 4.90377 21.2318C5.66179 20.2967 6.68311 19.1638 8.8038 17.4918C10.9245 15.8197 14.0499 13.6736 16.3716 12.233C18.6934 10.7924 20.1668 10.0789 21.6132 9.51152C23.0595 8.94415 24.437 8.5353 25.342 8.30151C26.247 8.06772 26.6667 8.01071 27.6755 8.01821C28.6842 8.02571 30.235 8.09559 31.3653 8.20536C32.4956 8.31514 33.1846 8.46039 33.8057 8.63935C34.4267 8.81831 34.9635 9.02472 35.6303 9.35098C36.2971 9.67723 37.0704 10.1102 38.002 10.7552C38.9336 11.4002 39.9915 12.2319 41.3241 13.628C42.6567 15.024 44.2167 16.9267 45.2739 18.4423C46.331 19.9579 46.89 21.044 47.1656 21.6966C47.5158 22.5256 47.9622 24.7133 47.4852 24.2723C47.4127 24.2053 47.2664 23.6835 46.3828 22.9153C45.8469 22.4494 44.8869 21.646 44.3494 21.2051C43.8119 20.7642 43.7004 20.6882 42.7521 20.2057C41.8039 19.7232 40.0713 18.8604 38.6435 18.2706C37.2158 17.6807 36.1258 17.3732 35.2439 17.1771C34.3619 16.981 33.7077 16.8989 33.0021 16.8727C32.2965 16.8465 31.5618 16.8753 30.9972 16.9392C30.4325 17.0032 30.0496 17.0994 29.2418 17.4042C28.434 17.7091 27.2377 18.2076 26.5599 18.5097C25.8822 18.8119 25.7277 18.9146 25.1859 19.3945C24.644 19.8743 23.6972 20.6674 23.1313 21.3688C22.21 22.5105 21.798 23.1862 21.5507 24.1132C21.3575 24.8371 20.9994 26.0438 20.8889 27.1314C20.6859 29.1299 20.6533 30.3295 20.4582 30.2912C20.168 30.2342 19.3986 29.7099 17.0069 30.0692C15.6217 30.2773 14.7722 30.44 14.2986 30.7213C13.4372 31.2331 12.43 31.8392 11.5178 32.7109C10.9948 33.2107 10.3986 33.8654 9.99405 34.3598C9.5895 34.8542 9.38282 35.1783 9.15492 35.6534C8.92702 36.1286 8.68522 36.7364 8.42728 37.6822C8.16934 38.628 7.85512 39.8682 7.76812 40.7846Z" fill="#E8F0F1"/>
</g>
</svg>
