<svg width="60" height="60" viewBox="0 0 60 60" fill="none" xmlns="http://www.w3.org/2000/svg">
<path d="M43.6642 16.3093C44.0375 15.7866 44.3835 14.9556 44.6208 14.2485C44.8065 13.6949 45.6152 13.305 45.9552 13.7797C46.1149 14.0026 46.2764 14.2831 46.4049 14.5241C46.7066 15.6812 46.8176 17.5357 45.9258 18.7174C45.1819 19.7031 42.5043 22.6484 39.5589 22.0407C38.0433 21.7279 36.7745 21.3883 35.857 20.0119C35.6592 19.7152 35.6089 19.4358 36.0861 19.3008L36.1231 19.2904C39.5861 18.3109 42.9051 17.3721 43.6642 16.3093Z" fill="#3AC43A"/>
<path d="M22.7446 23.6148C23.1769 22.8909 23.5761 21.7171 23.8372 20.7575C24.0101 20.1221 24.9261 19.7224 25.2645 20.2873C25.4401 20.5805 25.6178 20.9496 25.7591 21.2666C26.0909 22.7886 26.213 25.2281 25.2321 26.7826C24.4139 28.0792 21.4688 31.9536 18.2291 31.1541C16.5621 30.7427 15.1666 30.296 14.1574 28.4854C13.9398 28.095 13.8846 27.7276 14.4095 27.55L14.4501 27.5363C18.2591 26.2478 21.9096 25.0128 22.7446 23.6148Z" fill="#3AC43A"/>
<path d="M37.0317 36.7031C37.9184 35.6908 38.729 33.9746 39.1944 32.7169C39.4435 32.0437 40.3415 31.5775 40.9511 31.9564C41.3032 32.1752 41.4754 32.3432 41.6516 32.5437C41.9736 32.9102 42.2993 33.3716 42.5583 33.7678C43.1666 35.6704 43.3905 38.7197 41.5921 40.6628C40.0921 42.2836 34.6928 47.1265 28.7534 46.1272C25.6973 45.613 23.1388 45.0545 21.2886 42.7913C20.8897 42.3034 20.7884 41.8441 21.7507 41.6221L21.8253 41.6049C28.8083 39.9943 35.501 38.4506 37.0317 36.7031Z" fill="#3AC43A"/>
<mask id="mask0_2707_354" style="mask-type:alpha" maskUnits="userSpaceOnUse" x="21" y="31" width="22" height="16">
<path d="M37.0317 36.7031C37.9184 35.6908 38.729 33.9746 39.1944 32.7169C39.4435 32.0437 40.3415 31.5775 40.9511 31.9564C41.3032 32.1752 41.4754 32.3432 41.6516 32.5437C41.9736 32.9102 42.2993 33.3716 42.5583 33.7678C43.1666 35.6704 43.3905 38.7197 41.5921 40.6628C40.0921 42.2836 34.6928 47.1265 28.7534 46.1272C25.6973 45.613 23.1388 45.0545 21.2886 42.7913C20.8897 42.3034 20.7884 41.8441 21.7507 41.6221L21.8253 41.6049C28.8083 39.9943 35.501 38.4506 37.0317 36.7031Z" fill="#3AC43A"/>
</mask>
<g mask="url(#mask0_2707_354)">
<path d="M20.8529 41.2421C19.657 41.09 19.2597 41.09 19.2536 41.09C19.1391 41.322 19.1436 41.4578 19.0537 41.4961C18.8819 41.5436 18.565 41.651 18.2341 41.779C18.1396 41.8899 18.0779 42.0658 18.1085 42.2645C18.1744 42.6938 18.2584 43.4862 18.9879 44.3334C19.4971 44.9249 20.228 45.6034 21.1538 46.09C21.5944 46.3215 22.0064 46.4739 23.3149 46.7495C24.6234 47.0251 26.7635 47.4122 28.6487 47.6181C30.5339 47.8241 32.1163 47.8482 33.9406 47.7328C35.7649 47.6173 37.7771 47.4104 38.8882 47.2031C40.2295 46.9527 40.6544 46.7902 40.989 46.5725C41.295 46.3734 42.0539 45.9021 42.8172 44.9853C43.3758 44.3144 44.0257 43.335 44.5781 41.8784C45.1194 40.4509 45.4109 39.5641 45.4038 38.9558C45.3908 37.8379 45.3206 36.7115 45.102 36.0528C44.989 35.7124 44.4846 34.6443 43.3151 33.163C42.3838 31.9833 41.8995 31.4217 41.7968 31.2699C41.6844 31.1038 41.623 32.2429 41.486 34.1884C41.4095 35.2758 41.4071 36.1315 40.3657 37.241C39.9299 37.7054 39.2669 38.33 38.3935 38.9995C37.5201 39.669 36.4682 40.3625 35.622 40.8336C34.7759 41.3047 34.1544 41.5462 33.2819 41.766C32.4094 41.9859 31.319 42.1783 29.7294 42.2135C28.1398 42.2487 26.1125 42.1304 24.4822 41.9145C22.8518 41.6985 21.6624 41.3451 20.8529 41.2421Z" fill="#156F1D"/>
</g>
<mask id="mask1_2707_354" style="mask-type:alpha" maskUnits="userSpaceOnUse" x="14" y="20" width="12" height="12">
<path d="M22.7446 23.6148C23.1769 22.8909 23.5761 21.7171 23.8372 20.7575C24.0101 20.1221 24.9261 19.7224 25.2645 20.2873C25.4401 20.5805 25.6178 20.9496 25.7591 21.2666C26.0909 22.7886 26.213 25.2281 25.2321 26.7826C24.4139 28.0792 21.4688 31.9536 18.2291 31.1541C16.5621 30.7427 15.1666 30.296 14.1574 28.4854C13.9398 28.095 13.8846 27.7276 14.4095 27.55L14.4501 27.5363C18.2591 26.2478 21.9096 25.0128 22.7446 23.6148Z" fill="#3AC43A"/>
</mask>
<g mask="url(#mask1_2707_354)">
<path d="M13.7953 27.9245C13.3913 27.7404 12.9202 27.6533 12.8745 27.6442C12.6346 27.5791 12.4036 27.658 12.2997 27.6442C12.1632 27.6328 12.0759 27.6529 11.9835 27.6897C11.9198 27.73 11.8057 27.9451 11.7464 28.2831C11.7091 28.4955 11.6835 28.833 11.7792 29.4782C11.8383 29.8766 11.945 30.407 12.0735 30.8636C12.2021 31.3202 12.3479 31.6919 12.4827 31.9732C12.6174 32.2546 12.7374 32.44 12.9891 32.7236C13.2408 33.0072 13.613 33.3777 13.9331 33.6677C14.2531 33.9576 14.5132 34.1608 14.799 34.3395C15.0848 34.5182 15.3871 34.6679 15.7475 34.811C16.1078 34.954 16.5138 35.0865 16.8307 35.1693C17.1475 35.2521 17.3685 35.2842 17.8574 35.2823C18.3462 35.2803 19.0806 35.2452 19.5788 35.1953C20.0769 35.1453 20.331 35.0824 20.8107 34.9101C21.2904 34.7379 21.9749 34.4646 22.5934 34.1655C23.2119 33.8665 23.748 33.5512 24.0864 33.3328C24.4247 33.1144 24.561 32.9964 24.7282 32.8148C24.8953 32.6333 25.0875 32.3952 25.4137 31.8606C25.74 31.3259 26.1867 30.5191 26.4819 29.9184C26.7771 29.3177 26.9164 28.9347 26.9955 28.6889C27.0745 28.4431 27.0927 28.3375 27.1156 27.2108C27.1384 26.0842 27.1651 23.9995 27.1324 22.6914C27.0997 21.3833 27.0412 20.8593 26.94 20.5378C26.7161 19.8266 26.5394 19.3852 26.3071 19.3731C26.1205 19.3634 25.9335 19.3551 25.8008 19.4816C25.7446 19.5352 25.6583 19.7657 25.4827 20.0914C25.3458 20.3455 25.2411 20.5139 25.1204 20.9095C25.0201 21.2382 24.855 21.8141 24.6807 22.4172C24.5065 23.0203 24.3285 23.6319 24.1783 24.0924C24.0281 24.5528 23.9093 24.8531 23.8368 25.0253C23.7642 25.1976 23.7388 25.2406 23.5207 25.4943C23.3026 25.748 22.904 26.1989 22.3442 26.6955C21.7845 27.1921 21.0848 27.7185 20.5444 28.065C20.0041 28.4115 19.6381 28.584 19.3409 28.6846C18.8369 28.8552 18.5874 28.9216 18.1816 28.9166C17.8138 28.9121 17.1365 28.9001 16.7164 28.879C16.2962 28.8579 16.138 28.8285 15.826 28.7332C15.5139 28.6378 15.0616 28.4813 14.675 28.3236C14.2884 28.1659 13.9786 28.008 13.7953 27.9245Z" fill="#156F1D"/>
</g>
<mask id="mask2_2707_354" style="mask-type:alpha" maskUnits="userSpaceOnUse" x="35" y="13" width="12" height="10">
<path d="M43.6642 16.3093C44.0375 15.7866 44.3835 14.9556 44.6208 14.2485C44.8065 13.6949 45.6152 13.305 45.9552 13.7797C46.1149 14.0026 46.2764 14.2831 46.4049 14.5241C46.7066 15.6812 46.8176 17.5357 45.9258 18.7174C45.1819 19.7031 42.5043 22.6484 39.5589 22.0407C38.0433 21.7279 36.7745 21.3883 35.857 20.0119C35.6592 19.7152 35.6089 19.4358 36.0861 19.3008L36.1231 19.2904C39.5861 18.3109 42.9051 17.3721 43.6642 16.3093Z" fill="#3AC43A"/>
</mask>
<g mask="url(#mask2_2707_354)">
<path d="M35.5692 19.3658C34.8131 18.98 34.3695 18.8778 34.2852 18.8709C34.0016 18.8502 33.5382 18.8716 33.4401 19.0382C33.3419 19.2049 33.3556 19.5254 33.3894 19.7839C33.4755 20.2332 33.707 21.142 34.2809 22.0685C34.6192 22.6147 34.8692 22.9205 36.1255 23.4222C36.8588 23.7151 37.2938 23.8723 37.8485 23.8695C38.33 23.867 39.194 23.8506 40.0515 23.7662C40.9089 23.6818 41.7348 23.5337 42.3497 23.3894C42.9646 23.2451 43.3566 23.1088 43.8848 22.8773C44.413 22.6457 45.0697 22.3486 45.5893 22.0259C46.5268 21.4436 47.0406 21.095 47.2112 20.8696C47.661 20.2751 47.9515 19.8338 47.9019 18.5781C47.8872 18.2078 47.8139 17.2878 47.2598 15.8249C46.7088 14.3703 46.3601 13.1531 46.2522 13.3248C46.1603 13.4711 46.0847 14.0807 45.5704 15.3373C45.1032 16.4786 44.7466 17.3361 44.3362 17.804C43.637 18.6015 43.1478 19.1907 42.9197 19.3988C42.6073 19.6837 42.2101 20.0765 41.7003 20.284C40.9934 20.5716 40.7428 20.7121 39.1736 20.5932C38.5474 20.5458 37.8055 20.3976 37.0337 20.0639C36.5712 19.8639 36.1111 19.6424 35.5692 19.3658Z" fill="#156F1D"/>
</g>
</svg>
