<svg width="60" height="60" viewBox="0 0 60 60" fill="none" xmlns="http://www.w3.org/2000/svg">
<g clip-path="url(#clip0_2707_410)">
<path d="M18.5518 21.7388C15.7816 15.5945 13.4822 8.56125 14.14 7.70087C14.7979 6.8405 17.7752 7.51603 18.4102 7.82692C19.0451 8.1378 21.687 9.04011 23.962 10.1563C26.2371 11.2724 26.663 11.8761 28.0943 12.9721C29.5256 14.0682 33.4923 18.0764 34.5423 21.264C36.8389 28.2365 37.4133 31.4325 37.867 33.8209C38.2273 35.7182 39.6668 39.0854 38.7101 38.7862C38.4421 38.7023 37.9293 38.1545 37.4385 37.7952C35.8843 36.6576 32.6283 36.149 27.019 31.645C23.9221 29.1583 20.2736 25.5577 18.5518 21.7388Z" fill="#64B19A"/>
<path d="M33.6687 14.64C32.0194 14.5414 30.1379 14.7364 29.9263 15.0562C29.7147 15.3759 30.7997 15.6072 30.9618 16.0801C31.1239 16.5531 31.2472 16.2327 32.0731 17.0622C33.1685 18.1846 34.0202 19.0544 34.5179 19.2988C35.1766 19.6222 35.894 19.9391 36.6677 20.0228C37.5715 20.1205 38.1989 20.1753 38.829 19.97C40.2006 19.5231 41.2044 19.1269 41.0695 19.0664C40.5516 18.8338 39.5371 18.4225 38.5364 17.5541C37.5319 16.6825 36.7269 15.9204 36.0051 15.5202C35.3287 15.1452 34.5713 14.694 33.6687 14.64Z" fill="#64B19A"/>
<path d="M17.6701 25.2843C18.1176 23.6939 18.9186 21.9803 19.2901 21.8851C19.6615 21.79 19.5243 22.8909 19.918 23.1991C20.3117 23.5073 19.9686 23.5188 20.4815 24.5709C21.1828 25.9738 21.7253 27.0635 21.793 27.6138C21.8826 28.3421 21.9469 29.1238 21.7723 29.8821C21.5684 30.7681 21.4144 31.3788 21.014 31.9067C20.1421 33.0561 19.4388 33.8745 19.4258 33.7272C19.3758 33.1617 19.3198 32.0684 18.8275 30.8383C18.3334 29.6036 17.8773 28.5933 17.7357 27.7801C17.6032 27.0182 17.4252 26.1548 17.6701 25.2843Z" fill="#64B19A"/>
<mask id="mask0_2707_410" style="mask-type:alpha" maskUnits="userSpaceOnUse" x="14" y="7" width="26" height="32">
<path d="M18.5518 21.7388C15.7816 15.5945 13.4822 8.56125 14.14 7.70087C14.7979 6.8405 17.7752 7.51603 18.4102 7.82692C19.0451 8.1378 21.687 9.04011 23.962 10.1563C26.2371 11.2724 26.663 11.8761 28.0943 12.9721C29.5256 14.0682 33.4923 18.0764 34.5423 21.264C36.8389 28.2365 37.4133 31.4325 37.867 33.8209C38.2273 35.7182 39.6668 39.0854 38.7101 38.7862C38.4421 38.7023 37.9293 38.1545 37.4385 37.7952C35.8843 36.6576 32.6283 36.149 27.019 31.645C23.9221 29.1583 20.2736 25.5577 18.5518 21.7388Z" fill="#64B19A"/>
</mask>
<g mask="url(#mask0_2707_410)">
<path d="M14.7351 8.49672C14.0394 7.2654 13.7962 6.7801 13.7161 6.60922C13.5287 6.58197 12.5772 6.66803 12.4654 6.67359C11.7988 6.82368 10.9427 7.1437 10.6746 7.51787C10.5145 7.80864 10.0993 8.60149 9.78943 10.2353C9.60449 11.2103 9.43236 12.4834 9.40667 13.2277C9.37399 14.1742 9.44836 14.6267 10.0267 16.0155C10.5122 17.1815 11.3865 19.2195 12.8246 21.7437C14.2628 24.2679 16.2058 27.1898 18.2843 29.7131C20.3628 32.2363 22.5117 34.2984 23.9306 35.5526C25.3494 36.8067 26.0179 37.2397 27.3255 37.9179C28.633 38.5961 30.5223 39.4924 31.6091 39.9773C32.696 40.4622 32.972 40.5335 33.2772 40.5793C33.5825 40.6251 33.9073 40.6446 35.0966 40.5061C36.2859 40.3675 38.2793 40.0795 39.3326 39.8868C40.3859 39.6941 40.4957 39.5996 40.5328 39.5013C40.5699 39.403 40.5394 39.3018 40.4968 39.2171C40.417 39.0585 40.261 38.8099 39.7055 38.2714C39.2937 37.8722 39.0272 37.5781 38.3946 36.9277C37.7619 36.2773 36.7803 35.2906 35.8272 34.3148C34.8741 33.339 33.5792 32.0825 30.9454 29.1714C28.3116 26.2604 24.4558 21.8291 22.5056 19.5842C20.5554 17.3392 20.5123 17.2823 20.2117 16.8746C19.9111 16.4669 19.3695 15.7306 18.2763 14.0698C17.183 12.4089 15.5423 9.92535 14.7351 8.49672Z" fill="#406381"/>
</g>
<path d="M39.4202 40.7914C37.4982 38.6543 37.4325 36.9169 37.5065 36.7579C37.5806 36.5989 37.8285 36.6654 37.9597 36.6317C38.4137 36.5508 39.0686 36.6125 40.8461 37.2836C42.026 37.8005 44.1297 38.7474 45.4686 39.4411C46.8075 40.1348 47.3648 40.5625 48.0237 41.1695C48.6827 41.7764 49.4042 42.5576 50.1172 43.1974C51.4488 44.3922 52.4181 45.2716 52.2457 45.2421C51.9423 45.19 51.5907 45.0657 50.6293 44.9866C49.7818 44.9168 48.2457 44.8068 47.1481 44.693C46.0505 44.5791 45.4046 44.4877 44.8859 44.3346C43.9631 44.0622 42.7354 43.5348 41.3415 42.5007C40.6497 41.9875 40.0124 41.4499 39.4202 40.7914Z" fill="#64B19A"/>
<path d="M37.2619 39.2675C37.2713 37.3926 36.9287 36.8484 37.1155 36.8396C37.3024 36.8307 37.7758 37.8263 38.1934 38.368C38.611 38.9098 39.2632 39.7842 39.6325 40.2998C40.0018 40.8154 40.0856 40.9676 40.3996 41.9606C40.7136 42.9536 41.2419 44.7335 41.5465 46.3028C41.8511 47.8722 41.9725 49.1916 41.9375 50.0883C41.8845 51.4475 42.5637 54.2919 41.6774 53.8719C41.286 53.6864 40.4219 53.0441 39.7148 52.3291C38.3635 50.9628 37.6379 50.1836 37.3979 49.472C36.8509 47.8496 36.4315 46.5055 36.4495 45.5241C36.4621 44.8434 36.4734 43.805 36.6394 43.0098C36.9243 41.6451 37.2559 40.4706 37.2619 39.2675Z" fill="#64B19A"/>
<mask id="mask1_2707_410" style="mask-type:alpha" maskUnits="userSpaceOnUse" x="36" y="36" width="7" height="18">
<path d="M37.2619 39.2675C37.2713 37.3926 36.9287 36.8484 37.1155 36.8396C37.3024 36.8307 37.7758 37.8263 38.1934 38.368C38.611 38.9098 39.2632 39.7842 39.6325 40.2998C40.0018 40.8154 40.0856 40.9676 40.3996 41.9606C40.7136 42.9536 41.2419 44.7335 41.5465 46.3028C41.8511 47.8722 41.9725 49.1916 41.9375 50.0883C41.8845 51.4475 42.5637 54.2919 41.6774 53.8719C41.286 53.6864 40.4219 53.0441 39.7148 52.3291C38.3635 50.9628 37.6379 50.1836 37.3979 49.472C36.8509 47.8496 36.4315 46.5055 36.4495 45.5241C36.4621 44.8434 36.4734 43.805 36.6394 43.0098C36.9243 41.6451 37.2559 40.4706 37.2619 39.2675Z" fill="#64B19A"/>
</mask>
<g mask="url(#mask1_2707_410)">
<path d="M38.0931 37.6166C38.0525 37.3902 37.4713 36.451 37.3558 36.1131C37.2883 36.1696 37.267 36.2086 37.1507 36.5389C37.0345 36.8691 36.8297 37.4723 36.7012 37.9483C36.5727 38.4243 36.5221 38.763 36.5008 38.9672C36.4794 39.1715 36.487 39.2392 36.3035 39.7957C36.12 40.3522 35.7564 41.3667 35.4982 42.2845C35.24 43.2022 35.0918 43.999 35.0146 44.6211C34.9375 45.2432 34.9316 45.6776 34.9489 46.0251C34.9661 46.3727 35.0052 46.6258 35.0633 46.8714C35.1214 47.1171 35.1963 47.3482 35.4282 47.8834C35.6602 48.4186 36.0377 49.2332 36.4759 49.9961C36.914 50.759 37.398 51.4493 37.9167 52.0564C38.4353 52.6635 38.9724 53.1722 39.3768 53.5165C39.7812 53.8609 40.045 54.0356 40.234 54.1484C40.4229 54.2612 40.5337 54.3104 40.7893 54.383C41.0449 54.4555 41.4335 54.5485 41.6575 54.5899C41.8815 54.6314 41.9392 54.6216 41.8769 54.4803C41.8147 54.339 41.6379 54.0742 41.3629 53.5984C41.088 53.1226 40.7258 52.456 40.343 51.4602C39.9602 50.4644 39.5686 49.1785 39.3527 48.4231C39.1367 47.6678 39.0975 47.4496 38.9975 47.0718C38.8974 46.6939 38.7413 46.1722 38.6108 44.7044C38.4804 43.2366 38.3787 40.8938 38.2907 39.5353C38.2027 38.1767 38.1284 37.8139 38.0931 37.6166Z" fill="#406381"/>
</g>
<mask id="mask2_2707_410" style="mask-type:alpha" maskUnits="userSpaceOnUse" x="37" y="36" width="16" height="10">
<path d="M39.4202 40.7914C37.4982 38.6543 37.4325 36.9169 37.5065 36.7579C37.5806 36.5989 37.8285 36.6654 37.9597 36.6317C38.4137 36.5508 39.0686 36.6125 40.8461 37.2836C42.026 37.8005 44.1297 38.7474 45.4686 39.4411C46.8075 40.1348 47.3648 40.5625 48.0237 41.1695C48.6827 41.7764 49.4042 42.5576 50.1172 43.1974C51.4488 44.3922 52.4181 45.2716 52.2457 45.2421C51.9423 45.19 51.5907 45.0657 50.6293 44.9866C49.7818 44.9168 48.2457 44.8068 47.1481 44.693C46.0505 44.5791 45.4046 44.4877 44.8859 44.3346C43.9631 44.0622 42.7354 43.5348 41.3415 42.5007C40.6497 41.9875 40.0124 41.4499 39.4202 40.7914Z" fill="#64B19A"/>
</mask>
<g mask="url(#mask2_2707_410)">
<path d="M37.7961 36.6141C37.5594 36.2521 37.4766 36.0497 37.4443 35.9619C37.519 36.0264 37.6708 36.316 37.7961 36.6141C37.8587 36.7099 37.932 36.8168 38.0181 36.9358C38.3759 37.4303 39.0785 38.3119 39.6173 38.9368C40.1561 39.5618 40.5206 39.8953 41.2468 40.4C41.973 40.9046 43.0499 41.5703 43.6742 41.9437C44.2985 42.3171 44.4374 42.3781 45.2557 42.6336C46.074 42.889 47.5674 43.337 48.5898 43.635C50.1147 44.0795 50.6928 44.2265 50.9894 44.3823C51.6771 44.7436 52.1839 45.0777 52.5221 45.37C53.8187 46.4902 54.0802 46.8423 54.2949 47.0847C54.3707 47.1703 54.4848 47.3028 54.5142 47.3925C54.5437 47.4823 54.4834 47.5268 53.951 47.6221C53.4186 47.7174 52.416 47.8622 51.7856 47.9358C51.1552 48.0095 50.9274 48.0077 50.0677 47.8631C49.2081 47.7185 47.7235 47.4311 46.8312 47.2387C45.9388 47.0464 45.6837 46.9577 45.4183 46.8339C45.1529 46.71 44.8848 46.5536 44.2991 46.06C43.7135 45.5663 42.8183 44.7401 41.98 43.7934C41.1417 42.8466 40.3873 41.8042 39.8014 40.8677C39.2155 39.9312 38.821 39.1321 38.5109 38.4188C38.2007 37.7056 37.9869 37.1024 37.8546 36.7593C37.8361 36.7113 37.8164 36.6626 37.7961 36.6141Z" fill="#406381"/>
</g>
<path d="M37.7375 38.5407C37.737 38.5299 37.7415 38.489 37.748 38.4419C37.7514 38.4177 37.7509 38.3861 37.7501 38.3331C37.749 38.2502 37.7355 38.1006 37.717 37.9018C37.7077 37.8022 37.6947 37.7059 37.6785 37.5977C37.6446 37.3721 37.6164 37.2004 37.6087 37.1155C37.6003 37.0218 37.6083 36.929 37.6143 36.875C37.6156 36.8628 37.6188 36.8532 37.6223 36.853C37.6551 36.8512 37.6749 36.8972 37.7166 36.9717C37.7629 37.0506 37.7974 37.1128 37.8094 37.1463C37.8161 37.1647 37.8243 37.186 37.8327 37.2079" stroke="#406381" stroke-linecap="round"/>
<path d="M20.8574 10.6076C19.693 10.1088 18.9746 9.81821 18.7217 9.71929C18.8075 9.86562 18.8368 9.91413 18.8651 9.96319C19.0568 10.2614 19.4216 10.706 20.0506 11.292C20.6429 11.8015 21.3141 12.4589 21.9454 13.0335C22.4271 13.4719 22.6977 13.7305 22.8904 13.9179C23.1801 14.1998 23.6809 14.5644 24.4645 15.1961C24.9565 15.5927 25.6171 16.1492 25.9665 16.4591C26.3671 16.8144 26.7526 17.119 27.2669 17.5919C27.8296 18.1093 28.3591 18.5439 28.7707 18.6314C29.1332 18.7084 29.5917 18.934 29.7947 18.8193C29.8406 18.7934 29.8695 18.7379 29.8673 18.677C29.865 18.6161 29.8368 18.5492 29.7441 18.4033C29.3272 17.7465 29.1381 17.4532 28.7126 16.9304C28.3878 16.5314 27.8768 15.8154 26.8789 14.8406C26.2878 14.2633 25.5063 13.5522 24.9553 13.1361C24.1512 12.5287 23.5653 12.0959 22.7271 11.5951C22.2283 11.2971 21.5837 10.9188 20.8574 10.6076Z" fill="#D9D9D9"/>
<path d="M18.6192 9.68071C18.6249 9.67877 19.3843 9.97649 20.8574 10.6076C21.5837 10.9188 22.2283 11.2971 22.7271 11.5951C23.5653 12.0959 24.1512 12.5287 24.9553 13.1361C25.5063 13.5522 26.2878 14.2633 26.8789 14.8406C27.8768 15.8154 28.3878 16.5314 28.7126 16.9304C29.1381 17.4532 29.3272 17.7465 29.7441 18.4033C29.8368 18.5492 29.865 18.6161 29.8673 18.677C29.8695 18.7379 29.8406 18.7934 29.7947 18.8193C29.5917 18.934 29.1332 18.7084 28.7707 18.6314C28.3591 18.5439 27.8296 18.1093 27.2669 17.5919C26.7526 17.119 26.3671 16.8144 25.9665 16.4591C25.6171 16.1492 24.9565 15.5927 24.4645 15.1961C23.6809 14.5644 23.1801 14.1998 22.8904 13.9179C22.6977 13.7305 22.4271 13.4719 21.9454 13.0335C21.3141 12.4589 20.6429 11.8015 20.0506 11.292C19.4216 10.706 19.0568 10.2614 18.8651 9.96319C18.8327 9.90707 18.7991 9.85166 18.681 9.64973" stroke="#D9D9D9" stroke-linecap="round"/>
</g>
<defs>
<clipPath id="clip0_2707_410">
<rect width="60" height="60" fill="white"/>
</clipPath>
</defs>
</svg>
