<svg width="60" height="60" viewBox="0 0 60 60" fill="none" xmlns="http://www.w3.org/2000/svg">
<path d="M34 25C34 25.0089 34 25.0177 35.0161 26.3279C36.0323 27.6381 38.0646 30.2494 39.5251 32.4672C40.9856 34.685 41.8127 36.4302 42.7839 39.4868C43.755 42.5434 44.8452 46.8584 45.4556 49.3813C46.2087 52.4935 46.2658 53.2308 46.2796 53.4733C46.2921 53.6071 46.3157 53.7628 46.3322 53.8953C46.3486 54.0278 46.3573 54.1325 46.3662 54.2404" stroke="#4F3636" stroke-width="2" stroke-linecap="round"/>
<path d="M24.4673 16.287C26.9714 18.9269 29.6883 21.0285 29.9729 21.204C30.3303 21.3028 30.5042 21.3025 30.6702 21.2781C30.8362 21.2536 30.9896 21.2066 31.16 21.1483C31.8551 20.8537 32.5827 20.4797 33.0188 19.7321C33.1934 19.4327 33.3036 19.0179 33.2225 18.419C33.1243 17.6936 32.6369 15.4147 31.4518 12.2459C30.9235 10.8333 30.4796 9.79484 29.9046 8.99984C28.2583 6.72369 27.2992 5.40735 26.1276 5.20208C25.0183 5.00773 22.8046 4.7707 22.0433 5.46312C21.732 5.74628 21.3224 6.05513 21.2661 6.48614C21.2042 6.95927 21.0574 8.43366 21.7241 10.5857C22.3731 12.681 23.0832 14.8278 24.4673 16.287Z" fill="#C08080"/>
<path d="M22.4878 20.2255C26.9579 21.032 29.743 21.5595 29.9314 21.5595C30.2149 21.4796 30.5545 21.4967 30.7264 21.53C30.8984 21.5632 31.0397 21.6277 31.1067 21.7443C31.1668 22.0244 31.0911 22.5794 30.6952 23.1591C30.0088 24.1645 29.276 25.0848 25.2689 26.6892C23.8052 27.2752 22.0371 28.0037 20.5224 28.1509C17.859 28.4097 16.1672 28.6395 14.4492 27.6579C13.0761 26.8733 11.9959 26.1691 12 25.4167C12.0048 24.5463 12.0582 23.5705 12.7275 22.7303C13.5592 21.6863 14.2706 20.9151 16.6778 20.1597C17.3451 19.9502 19.074 19.6095 22.4878 20.2255Z" fill="#C08080"/>
<path d="M31.9783 18.7221C31.0547 20.4368 31.1263 21.2382 31.1263 21.5587C31.5973 21.7616 31.7398 21.8313 31.8897 21.8939C32.1919 22.0105 33.9106 22.0357 36.4157 21.9476C37.8371 21.7976 39.3688 21.4343 40.9739 20.8103C41.7193 20.5204 43.3447 19.8853 44.8275 18.1231C46.3877 16.2691 47.8523 14.3884 47.2964 12.6914C46.6909 10.8429 46.0314 8.77565 45.0185 8.64991C43.4284 8.45253 41.1439 8.50759 40.3944 8.96828C39.743 9.3687 37.9312 10.5697 35.566 13.549C34.2088 15.2585 32.6589 17.4585 31.9783 18.7221Z" fill="#A36666"/>
<path d="M30.8455 23.795C31.393 22.9101 31.4767 22.7716 31.4767 22.7613C31.8927 22.9564 32.1947 22.6268 32.3144 22.7277C32.5397 22.9455 33.8969 24.8869 35.3044 27.3045C35.7903 28.4917 36.3795 30.544 35.9126 32.9615C35.3329 35.9623 35.0696 37.1766 33.1442 38.5738C32.6379 38.9411 32.1895 39.0482 31.6525 38.9807L31.6318 38.9781C31.1406 38.9163 30.5504 38.8421 30.0511 38.5215C29.2296 37.9938 27.7946 36.9125 27.6476 34.5835C27.5483 33.0092 27.5073 31.3001 27.9532 29.7277C28.4093 28.1195 29.5366 25.9106 30.8455 23.795Z" fill="#A36666"/>
<path d="M33.7278 25.6268C31.6262 22.9515 31.8597 22.3978 31.833 22.1937C31.8935 21.8747 31.9512 21.7221 32.0477 21.5762C32.2755 21.2954 33.6936 21.1629 36.7589 21.4614C38.5754 21.7574 40.9417 22.1849 42.4753 22.8242C45.8791 24.2428 48.119 25.4192 48.1245 27.0372C48.1299 28.637 48.0252 29.7367 47.4975 30.2211C47.2347 30.4622 46.7685 31.0053 46.0197 31.1009C44.3924 31.3085 41.9264 31.3565 39.3103 29.9098C37.178 28.7307 35.0856 27.3553 33.7278 25.6268Z" fill="#C08080"/>
<ellipse cx="32.1872" cy="21.6458" rx="4.60417" ry="3.89583" fill="#CAC3C3"/>
</svg>
