<svg width="60" height="60" viewBox="0 0 60 60" fill="none" xmlns="http://www.w3.org/2000/svg">
<path d="M19.9813 20.5335C20.2719 20.4379 20.5617 20.348 20.8193 20.2719C20.9665 20.3791 21.0442 20.4539 21.1054 20.5173C21.2201 20.6433 21.3622 21.011 21.3845 21.5998C21.1743 22.1643 20.8817 22.7937 19.8878 23.3593C19.1066 23.8037 18.523 24.1475 18.0048 24.3805C17.0993 24.7879 16.6509 24.9091 15.711 25.2653C14.7711 25.6215 14.4286 25.608 14.2395 25.4977C14.0504 25.3875 13.2983 24.2881 13.0133 23.638C12.7282 22.9878 12.5975 22.2431 12.5228 21.0807C12.448 19.9184 12.552 19.3401 12.6681 18.6524C12.8926 17.3226 13.1775 15.7928 13.7485 15.6392C13.8401 15.6145 13.9794 15.5866 14.0574 15.6445C14.4005 15.8991 14.9429 16.61 15.3442 18.5619C15.4482 19.068 15.3691 19.3153 15.5636 19.7755C15.7581 20.2357 16.2038 20.9335 16.4193 21.039C16.6349 21.1444 16.9287 21.1837 17.5212 21.1113C18.1672 21.0324 19.0925 20.8256 19.9813 20.5335Z" fill="#3AC43A"/>
<path d="M40.0838 35.1784C38.7958 36.1963 38.8956 36.4933 38.8956 36.4995C38.8372 36.5798 38.7805 36.6578 38.4294 37.5374C38.0783 38.417 37.4518 40.0488 36.9978 41.4994C36.5439 42.95 36.208 44.1762 36.1294 45.3642C35.9785 47.6455 35.8933 49.291 36.2493 49.8005C36.3161 49.8962 36.3888 49.9816 36.6278 49.9816C37.2566 49.9815 38.8235 49.8352 40.8815 49.1807C41.8617 48.8689 42.6973 48.5067 43.4872 48.069C45.0397 47.2087 46.0626 46.6022 46.5139 46.0957C47.067 45.4748 47.6582 44.8094 47.8896 44.1336C48.1612 43.3402 48.6235 41.6994 47.9447 41.6693C47.7579 41.661 46.7991 41.8547 45.7649 42.6296C44.8163 43.3404 43.5876 44.5109 42.5165 45.4115C42.4169 45.4952 42.4974 45.4184 43.2653 44.4219C44.0333 43.4255 45.4458 41.5659 46.5481 39.7838C47.6504 38.0016 48.4687 36.3663 48.8299 35.366C49.2918 34.0866 49.6262 32.695 49.218 31.8892C49.1602 31.7751 49.0884 31.6766 48.9734 31.6252C48.7321 31.5171 47.861 31.3143 46.6516 31.5235C45.7814 31.6739 44.837 31.9634 43.3499 32.9099C42.3645 33.5371 40.9599 34.4861 40.0838 35.1784Z" fill="#3AC43A"/>
<path d="M20.3175 35.1784C21.6056 36.1963 21.5058 36.4933 21.5058 36.4995C21.5642 36.5798 21.6208 36.6578 21.9719 37.5374C22.3231 38.417 22.9496 40.0488 23.4036 41.4994C23.8575 42.95 24.1933 44.1762 24.272 45.3642C24.4229 47.6455 24.5081 49.291 24.1521 49.8005C24.0852 49.8962 24.0125 49.9816 23.7735 49.9816C23.1448 49.9815 21.5779 49.8352 19.5199 49.1807C18.5397 48.8689 17.704 48.5067 16.9142 48.069C15.3616 47.2087 14.3387 46.6022 13.8875 46.0957C13.3344 45.4748 12.7432 44.8094 12.5118 44.1336C12.2402 43.3402 11.7778 41.6994 12.4566 41.6693C12.6435 41.661 13.6022 41.8547 14.6365 42.6296C15.5851 43.3404 16.8138 44.5109 17.8849 45.4115C17.9845 45.4952 17.904 45.4184 17.136 44.4219C16.3681 43.4255 14.9555 41.5659 13.8532 39.7838C12.7509 38.0016 11.9327 36.3663 11.5715 35.366C11.1095 34.0866 10.7751 32.695 11.1833 31.8892C11.2411 31.7751 11.3129 31.6766 11.4279 31.6252C11.6693 31.5171 12.5404 31.3143 13.7498 31.5235C14.6199 31.6739 15.5644 31.9634 17.0515 32.9099C18.0368 33.5371 19.4414 34.4861 20.3175 35.1784Z" fill="#3AC43A"/>
<mask id="mask0_2707_344" style="mask-type:alpha" maskUnits="userSpaceOnUse" x="35" y="31" width="15" height="19">
<path d="M40.0838 35.1784C38.7958 36.1963 38.8956 36.4933 38.8956 36.4995C38.8372 36.5798 38.7805 36.6578 38.4294 37.5374C38.0783 38.417 37.4518 40.0488 36.9978 41.4994C36.5439 42.95 36.208 44.1762 36.1294 45.3642C35.9785 47.6455 35.8933 49.291 36.2493 49.8005C36.3161 49.8962 36.3888 49.9816 36.6278 49.9816C37.2566 49.9815 38.8235 49.8352 40.8815 49.1807C41.8617 48.8689 42.6973 48.5067 43.4872 48.069C45.0397 47.2087 46.0626 46.6022 46.5139 46.0957C47.067 45.4748 47.6582 44.8094 47.8896 44.1336C48.1612 43.3402 48.6235 41.6994 47.9447 41.6693C47.7579 41.661 46.7991 41.8547 45.7649 42.6296C44.8163 43.3404 43.5876 44.5109 42.5165 45.4115C42.4169 45.4952 42.4974 45.4184 43.2653 44.4219C44.0333 43.4255 45.4458 41.5659 46.5481 39.7838C47.6504 38.0016 48.4687 36.3663 48.8299 35.366C49.2918 34.0866 49.6262 32.695 49.218 31.8892C49.1602 31.7751 49.0884 31.6766 48.9734 31.6252C48.7321 31.5171 47.861 31.3143 46.6516 31.5235C45.7814 31.6739 44.837 31.9634 43.3499 32.9099C42.3645 33.5371 40.9599 34.4861 40.0838 35.1784Z" fill="#3AC43A"/>
</mask>
<g mask="url(#mask0_2707_344)">
<path d="M38.8049 36.8423C38.9358 35.3735 38.9429 35.0808 38.9429 35.0773C38.9093 34.9758 39.1601 34.7642 39.0925 34.7317C38.5731 34.6417 37.9131 34.6125 37.4169 34.4871C37.14 34.4715 36.8547 34.4746 35.9752 35.1513C35.4893 35.5252 34.7275 36.1447 34.1513 36.6985C33.5751 37.2523 33.1959 37.726 32.7499 38.4016C32.3038 39.0773 31.806 39.9291 31.4054 40.7874C31.0048 41.6456 30.7103 42.4849 30.5267 43.1731C30.343 43.8614 30.2722 44.3827 30.2834 45.6037C30.2945 46.8247 30.3849 48.6889 30.4721 49.7675C30.5593 50.846 30.6313 51.1342 30.7349 51.3888C30.9319 51.8727 31.1213 52.3006 31.4044 52.591C31.6813 52.8751 31.9935 53.1475 32.4929 53.3254C33.217 53.5834 33.927 53.8049 34.8451 53.8366C35.4771 53.8585 36.4279 53.8563 37.4957 53.7554C38.5634 53.6545 39.7133 53.4607 40.8436 53.1311C41.9738 52.8016 43.0519 52.3499 44.0252 51.8324C44.9984 51.3149 45.8614 50.7744 46.3495 50.3721C47.0264 49.8142 47.4955 49.2873 47.9673 48.4064C48.2332 47.9099 48.5075 47.2949 48.793 46.4808C49.0784 45.6667 49.3664 44.6833 49.5269 44.069C49.6874 43.4546 49.7294 43.2167 49.7332 42.7301C49.7427 41.5305 49.7143 40.6667 49.564 40.5648C49.5112 40.529 49.467 40.5632 49.4249 40.6016C49.3828 40.6399 49.344 40.6811 48.9821 41.1561C48.6202 41.6311 47.9554 42.5133 47.0962 43.4729C46.2371 44.4325 45.2339 45.4604 44.6173 45.9978C43.8528 46.6641 43.4648 46.8906 42.9323 47.0492C42.2645 47.2482 41.6448 47.3846 41.1462 47.319C40.6143 47.2491 40.2606 47.1907 40.0556 47.0777C39.4655 46.7526 39.1978 46.5825 38.9464 46.0141C38.5994 45.2296 38.2859 44.4522 38.2316 43.735C38.1991 43.3064 38.1961 42.7507 38.3184 41.4136C38.4408 40.0764 38.6998 38.0221 38.8049 36.8423Z" fill="#156F1D"/>
</g>
<mask id="mask1_2707_344" style="mask-type:alpha" maskUnits="userSpaceOnUse" x="10" y="31" width="15" height="19">
<path d="M20.3175 35.1784C21.6056 36.1963 21.5058 36.4933 21.5058 36.4995C21.5642 36.5798 21.6208 36.6578 21.9719 37.5374C22.3231 38.417 22.9496 40.0488 23.4036 41.4994C23.8575 42.95 24.1933 44.1762 24.272 45.3642C24.4229 47.6455 24.5081 49.291 24.1521 49.8005C24.0852 49.8962 24.0125 49.9816 23.7735 49.9816C23.1448 49.9815 21.5779 49.8352 19.5199 49.1807C18.5397 48.8689 17.704 48.5067 16.9142 48.069C15.3616 47.2087 14.3387 46.6022 13.8875 46.0957C13.3344 45.4748 12.7432 44.8094 12.5118 44.1336C12.2402 43.3402 11.7778 41.6994 12.4566 41.6693C12.6435 41.661 13.6022 41.8547 14.6365 42.6296C15.5851 43.3404 16.8138 44.5109 17.8849 45.4115C17.9845 45.4952 17.904 45.4184 17.136 44.4219C16.3681 43.4255 14.9555 41.5659 13.8532 39.7838C12.7509 38.0016 11.9327 36.3663 11.5715 35.366C11.1095 34.0866 10.7751 32.695 11.1833 31.8892C11.2411 31.7751 11.3129 31.6766 11.4279 31.6252C11.6693 31.5171 12.5404 31.3143 13.7498 31.5235C14.6199 31.6739 15.5644 31.9634 17.0515 32.9099C18.0368 33.5371 19.4414 34.4861 20.3175 35.1784Z" fill="#3AC43A"/>
</mask>
<g mask="url(#mask1_2707_344)">
<path d="M21.5964 36.8423C21.4656 35.3735 21.4585 35.0808 21.4585 35.0773C21.4921 34.9758 21.2412 34.7642 21.3088 34.7317C21.8283 34.6417 22.4882 34.6125 22.9844 34.4871C23.2614 34.4715 23.5466 34.4746 24.4261 35.1513C24.9121 35.5252 25.6739 36.1447 26.2501 36.6985C26.8263 37.2523 27.2054 37.726 27.6515 38.4016C28.0975 39.0773 28.5954 39.9291 28.996 40.7874C29.3966 41.6456 29.691 42.4849 29.8747 43.1731C30.0584 43.8614 30.1292 44.3827 30.118 45.6037C30.1069 46.8247 30.0165 48.6889 29.9293 49.7675C29.842 50.846 29.7701 51.1342 29.6665 51.3888C29.4695 51.8727 29.28 52.3006 28.997 52.591C28.72 52.8751 28.4079 53.1475 27.9085 53.3254C27.1843 53.5834 26.4744 53.8049 25.5562 53.8366C24.9243 53.8585 23.9734 53.8563 22.9057 53.7554C21.8379 53.6545 20.6881 53.4607 19.5578 53.1311C18.4275 52.8016 17.3494 52.3499 16.3762 51.8324C15.403 51.3149 14.54 50.7744 14.0519 50.3721C13.375 49.8142 12.9059 49.2873 12.4341 48.4064C12.1681 47.9099 11.8939 47.2949 11.6084 46.4808C11.3229 45.6667 11.035 44.6833 10.8745 44.069C10.714 43.4546 10.672 43.2167 10.6681 42.7301C10.6587 41.5305 10.687 40.6667 10.8374 40.5648C10.8902 40.529 10.9344 40.5632 10.9765 40.6016C11.0186 40.6399 11.0574 40.6811 11.4193 41.1561C11.7811 41.6311 12.446 42.5133 13.3051 43.4729C14.1643 44.4325 15.1675 45.4604 15.7841 45.9978C16.5486 46.6641 16.9366 46.8906 17.4691 47.0492C18.1369 47.2482 18.7565 47.3846 19.2552 47.319C19.787 47.2491 20.1407 47.1907 20.3458 47.0777C20.9358 46.7526 21.2036 46.5825 21.4549 46.0141C21.8019 45.2296 22.1155 44.4522 22.1698 43.735C22.2022 43.3064 22.2052 42.7507 22.0829 41.4136C21.9606 40.0764 21.7016 38.0221 21.5964 36.8423Z" fill="#156F1D"/>
</g>
<path d="M42.8055 32.1119C42.8055 39.0451 37.0959 44.6655 30.0527 44.6655C23.0095 44.6655 17.2998 39.0451 17.2998 32.1119C17.2998 25.1788 23.0095 11.8867 30.0527 11.8867C37.0959 11.8867 42.8055 25.1788 42.8055 32.1119Z" fill="#3AC43A"/>
<path d="M39.7277 20.3557C39.4371 20.2602 39.1472 20.1702 38.8897 20.0941C38.7425 20.2014 38.6648 20.2761 38.6036 20.3396C38.4889 20.4656 38.3468 20.8333 38.3245 21.422C38.5347 21.9866 38.8272 22.6159 39.8212 23.1815C40.6024 23.626 41.186 23.9697 41.7041 24.2028C42.6097 24.6101 43.0581 24.7313 43.998 25.0875C44.9379 25.4438 45.2804 25.4303 45.4695 25.32C45.6586 25.2098 46.4106 24.1103 46.6957 23.4602C46.9808 22.8101 47.1114 22.0654 47.1862 20.903C47.261 19.7406 47.157 19.1624 47.0409 18.4747C46.8164 17.1448 46.5315 15.6151 45.9605 15.4615C45.8688 15.4368 45.7296 15.4089 45.6516 15.4668C45.3085 15.7213 44.7661 16.4323 44.3648 18.3841C44.2607 18.8902 44.3399 19.1375 44.1454 19.5977C43.9509 20.058 43.5052 20.7558 43.2896 20.8612C43.0741 20.9667 42.7803 21.0059 42.1877 20.9336C41.5417 20.8547 40.6164 20.6479 39.7277 20.3557Z" fill="#3AC43A"/>
<path d="M45.6309 17.256C45.6279 17.2553 45.6249 17.2546 45.3157 17.0153C45.0065 16.7761 44.3913 16.2984 44.0655 16.046C43.6853 15.7515 43.6126 15.693 43.4521 15.5715C43.2871 15.4467 43.0872 15.2766 42.8881 15.1176C42.8386 15.0834 42.7737 15.0401 42.7316 15.0104C42.6895 14.9807 42.6722 14.9659 42.6201 14.9268" stroke="#3AC43A" stroke-width="2" stroke-linecap="round"/>
<path d="M46.0229 16.8236C46.0229 16.685 46.0002 16.2955 45.8032 15.6733C45.4812 14.7487 45.0815 13.8008 44.9533 13.5448C44.9038 13.4428 44.8858 13.3974 44.8662 13.3867" stroke="#3AC43A" stroke-width="2" stroke-linecap="round"/>
<path d="M46.29 17.1059C46.2908 16.9304 46.3147 16.468 46.6475 15.5901C47.2354 14.3947 47.428 13.9579 47.4894 13.8424C47.5158 13.7869 47.5323 13.7377 47.556 13.707" stroke="#3AC43A" stroke-width="2" stroke-linecap="round"/>
<path d="M46.4229 18.0514C46.458 17.9796 47.1046 17.1964 48.0287 16.2204C48.2123 16.0191 48.3508 15.8435 48.4355 15.7325C48.5203 15.6215 48.5472 15.5804 48.5749 15.5381" stroke="#3AC43A" stroke-width="2" stroke-linecap="round"/>
<path d="M14.3574 17.3839C14.3604 17.3832 14.3634 17.3825 14.6726 17.1433C14.9818 16.904 15.597 16.4263 15.9228 16.1739C16.303 15.8794 16.3756 15.821 16.5362 15.6995C16.7012 15.5746 16.901 15.4045 17.1002 15.2456C17.1497 15.2114 17.2146 15.1681 17.2567 15.1384C17.2988 15.1086 17.3161 15.0938 17.3682 15.0547" stroke="#3AC43A" stroke-width="2" stroke-linecap="round"/>
<path d="M13.9653 16.9505C13.9653 16.812 13.988 16.4224 14.1851 15.8002C14.5071 14.8756 14.9068 13.9278 15.0349 13.6718C15.0845 13.5698 15.1025 13.5244 15.1221 13.5137" stroke="#3AC43A" stroke-width="2" stroke-linecap="round"/>
<path d="M13.6982 17.2339C13.6975 17.0583 13.6736 16.5959 13.3408 15.718C12.7529 14.5226 12.5603 14.0858 12.4989 13.9703C12.4725 13.9148 12.4559 13.8657 12.4323 13.835" stroke="#3AC43A" stroke-width="2" stroke-linecap="round"/>
<path d="M13.5654 18.1793C13.5303 18.1076 12.8837 17.3243 11.9596 16.3483C11.776 16.147 11.6375 15.9714 11.5528 15.8604C11.468 15.7494 11.4411 15.7083 11.4134 15.666" stroke="#3AC43A" stroke-width="2" stroke-linecap="round"/>
<path d="M23.5833 15.5254C23.4356 15.9643 23.3625 16.9374 23.3612 17.3146C22.7323 18.3375 24.0381 16.4238 24.107 16.4537C24.2765 16.483 24.5477 16.4364 26.1373 16.5285C26.9391 16.6434 28.1589 16.8663 28.963 17.0008C29.7672 17.1352 30.1441 17.1799 30.9894 17.1945C31.8346 17.2091 33.1097 17.2027 33.7838 17.1811C34.5297 17.1572 35.3293 17.2889 35.8406 17.1011C35.9658 17.0551 36.1814 16.9702 36.2536 16.7552C36.4218 16.2549 36.3254 15.5177 36.2895 15.3296C36.2536 15.1416 36.2895 15.1416 35.9382 14.5688C35.587 13.996 35.5167 13.9945 35.2025 13.7467C34.9385 13.5385 34.3155 13.335 34.0492 13.1459C33.7216 12.9133 33.4584 12.7504 33.3029 12.4639C33.1261 12.138 32.9942 11.6499 32.4114 11.3577C31.7502 11.0262 30.9101 10.2065 29.8071 10.4919C28.9987 10.7011 28.2974 11.2065 27.956 11.5426C27.6348 11.859 27.5195 12.1114 27.2208 12.4144C26.9949 12.6434 26.7043 12.8078 26.399 12.974C26.0106 13.1853 25.6798 13.3155 25.3133 13.5315C24.8324 13.815 24.5339 14.0568 24.1611 14.5688C23.9345 14.88 23.6998 15.179 23.5833 15.5254Z" fill="#3AC43A" stroke="#3AC43A" stroke-width="2" stroke-linecap="round"/>
<mask id="mask2_2707_344" style="mask-type:alpha" maskUnits="userSpaceOnUse" x="17" y="11" width="26" height="34">
<path d="M42.8055 32.1119C42.8055 39.0451 37.0959 44.6655 30.0527 44.6655C23.0095 44.6655 17.2998 39.0451 17.2998 32.1119C17.2998 25.1788 23.0095 11.8867 30.0527 11.8867C37.0959 11.8867 42.8055 25.1788 42.8055 32.1119Z" fill="#3AC43A"/>
</mask>
<g mask="url(#mask2_2707_344)">
<path d="M16.7141 30.0841C16.7555 30.3722 17.0263 31.494 17.422 32.64C17.6156 33.2009 17.8558 33.6979 18.1102 34.172C18.3646 34.646 18.6416 35.0765 19.0672 35.6316C19.4929 36.1866 20.0587 36.8534 20.5616 37.3367C21.4265 38.1679 22.3028 38.5667 23.2577 38.9634C23.8255 39.1993 24.5912 39.4328 25.7073 39.666C26.8233 39.8991 28.2739 40.1063 29.506 40.2165C30.7382 40.3267 31.7081 40.3336 32.7768 40.2342C33.8454 40.1349 34.9835 39.929 35.6837 39.7783C36.6207 39.5767 37.2952 39.4691 37.8486 39.1924C38.4021 38.9157 39.3504 38.2473 40.1081 37.689C40.527 37.3804 41.1847 36.6874 41.7602 36.0903C42.6782 35.1379 43.1446 34.532 43.2988 34.3091C43.3832 34.165 43.3674 34.2019 43.346 34.2374C43.3363 34.2535 43.3207 34.2774 43.2988 34.3091C43.2318 34.4236 43.1014 34.6525 42.8602 35.0874C42.3157 36.0694 41.2017 38.1015 40.1193 39.7172C39.0369 41.3329 38.0198 42.4708 36.9429 43.4692C35.8661 44.4677 34.7602 45.2922 33.983 45.8274C32.8203 46.628 32.1551 46.8901 31.7179 47.0367C31.4915 47.1127 31.2451 47.1575 30.6065 47.2043C29.968 47.2511 28.942 47.2898 28.2477 47.2872C27.5533 47.2846 27.2216 47.2394 26.5525 47.0374C25.8834 46.8354 24.8869 46.4778 23.9543 46.0523C23.0217 45.6267 22.1833 45.144 21.352 44.5724C20.5207 44.0007 19.7218 43.3548 18.6496 42.184C17.5773 41.0131 16.2558 39.3368 15.3752 38.1074C14.4946 36.878 14.095 36.1462 13.8165 35.5787C13.3586 34.6459 13.1786 33.9514 13.076 33.2074C12.9284 32.1374 13.027 31.3557 13.0914 30.996C13.1906 30.4419 13.4013 30.0404 13.5596 29.8868C14.0157 29.444 14.98 29.431 15.5046 29.4327C15.6503 29.5026 15.7955 29.6256 15.9736 29.753C16.0553 29.8061 16.6482 30.0538 16.7141 30.0841Z" fill="#156F1D"/>
</g>
<mask id="mask3_2707_344" style="mask-type:alpha" maskUnits="userSpaceOnUse" x="12" y="15" width="10" height="11">
<path d="M19.9803 20.5335C20.2709 20.4379 20.5608 20.348 20.8183 20.2719C20.9655 20.3791 21.0432 20.4539 21.1044 20.5173C21.2191 20.6433 21.3612 21.011 21.3836 21.5998C21.1733 22.1643 20.8808 22.7937 19.8868 23.3593C19.1056 23.8037 18.522 24.1475 18.0039 24.3805C17.0983 24.7879 16.6499 24.9091 15.71 25.2653C14.7701 25.6215 14.4276 25.608 14.2385 25.4977C14.0495 25.3875 13.2974 24.2881 13.0123 23.638C12.7272 22.9878 12.5966 22.2431 12.5218 21.0807C12.447 19.9184 12.551 19.3401 12.6671 18.6524C12.8916 17.3226 13.1765 15.7928 13.7475 15.6392C13.8392 15.6145 13.9784 15.5866 14.0564 15.6445C14.3995 15.8991 14.942 16.61 15.3432 18.5619C15.4473 19.068 15.3681 19.3153 15.5626 19.7755C15.7571 20.2357 16.2028 20.9335 16.4184 21.039C16.6339 21.1444 16.9278 21.1837 17.5203 21.1113C18.1663 21.0324 19.0916 20.8256 19.9803 20.5335Z" fill="#3AC43A"/>
</mask>
<g mask="url(#mask3_2707_344)">
<path d="M12.3864 19.2852C12.1179 18.7622 11.8936 18.4445 11.8936 18.4355C11.7217 18.5974 11.6052 18.7782 11.5307 18.9145C11.4562 19.0508 11.4246 19.1402 11.4043 19.2132C11.3753 19.3411 11.3325 19.924 11.4159 21.1682C11.4651 21.9034 11.5607 22.8348 11.6749 23.5299C11.789 24.2251 11.8986 24.6782 12.0407 24.9985C12.2771 25.5317 12.4783 25.9135 12.7105 26.1372L12.7164 26.1429C13.0086 26.4245 13.4431 26.8431 14.0058 26.8778C14.4276 26.9038 14.9513 26.9193 15.5306 26.7738C16.2352 26.5967 16.8617 26.3945 17.4884 25.9861C17.9026 25.7162 18.4965 25.3171 18.8305 25.0455C19.2754 24.6839 19.6119 24.3948 19.8382 23.9654C20.2172 23.2464 20.5853 22.4869 20.4753 22.268C20.4305 22.1787 19.954 22.2754 18.9791 22.4788C18.4465 22.5899 17.8377 22.6967 17.2072 22.7449C16.5767 22.7931 15.9412 22.8067 15.5486 22.7553C15.0012 22.6835 14.7707 22.6083 14.6441 22.5127C14.3859 22.3177 14.1207 22.1429 13.4206 21.0268C13.0897 20.4993 12.614 19.7284 12.3864 19.2852Z" fill="#156F1D"/>
</g>
<mask id="mask4_2707_344" style="mask-type:alpha" maskUnits="userSpaceOnUse" x="38" y="15" width="10" height="11">
<path d="M39.7297 20.3557C39.439 20.2602 39.1492 20.1702 38.8916 20.0941C38.7444 20.2014 38.6668 20.2761 38.6056 20.3396C38.4908 20.4656 38.3487 20.8333 38.3264 21.422C38.5366 21.9866 38.8292 22.6159 39.8232 23.1815C40.6043 23.626 41.188 23.9697 41.7061 24.2028C42.6117 24.6101 43.06 24.7313 43.9999 25.0875C44.9399 25.4438 45.2824 25.4303 45.4714 25.32C45.6605 25.2098 46.4126 24.1103 46.6977 23.4602C46.9827 22.8101 47.1134 22.0654 47.1882 20.903C47.2629 19.7406 47.159 19.1624 47.0429 18.4747C46.8184 17.1448 46.5334 15.6151 45.9624 15.4615C45.8708 15.4368 45.7316 15.4089 45.6536 15.4668C45.3105 15.7213 44.768 16.4323 44.3667 18.3841C44.2627 18.8902 44.3418 19.1375 44.1473 19.5977C43.9528 20.058 43.5072 20.7558 43.2916 20.8612C43.076 20.9667 42.7822 21.0059 42.1897 20.9336C41.5437 20.8547 40.6184 20.6479 39.7297 20.3557Z" fill="#3AC43A"/>
</mask>
<g mask="url(#mask4_2707_344)">
<path d="M47.3235 19.1074C47.592 18.5845 47.8163 18.2668 47.8163 18.2578C47.9883 18.4197 48.1047 18.6005 48.1793 18.7368C48.2538 18.8731 48.2854 18.9625 48.3057 19.0354C48.3347 19.1633 48.3774 19.7463 48.2941 20.9904C48.2448 21.7256 48.1492 22.6571 48.0351 23.3522C47.9209 24.0473 47.8113 24.5004 47.6693 24.8208C47.4328 25.354 47.2316 25.7358 46.9994 25.9595L46.9936 25.9651C46.7013 26.2467 46.2668 26.6654 45.7041 26.7001C45.2824 26.7261 44.7586 26.7416 44.1794 26.596C43.4748 26.419 42.8482 26.2167 42.2216 25.8084C41.8074 25.5385 41.2135 25.1394 40.8794 24.8678C40.4346 24.5062 40.098 24.2171 39.8717 23.7877C39.4928 23.0686 39.1247 22.3091 39.2346 22.0903C39.2795 22.001 39.756 22.0977 40.7309 22.3011C41.2635 22.4122 41.8723 22.5189 42.5028 22.5671C43.1333 22.6153 43.7688 22.629 44.1614 22.5775C44.7088 22.5058 44.9392 22.4306 45.0658 22.335C45.3241 22.14 45.5892 21.9652 46.2893 20.849C46.6202 20.3215 47.096 19.5507 47.3235 19.1074Z" fill="#156F1D"/>
</g>
<path d="M29.2215 10.2205C29.6091 10.0794 30.0904 10.0067 30.178 10.0067C30.234 9.98973 30.232 10.0112 30.2741 10.0046C30.3727 9.99791 30.4597 10.0025 30.5176 10.0289C30.5459 10.0508 30.5751 10.0872 30.5958 10.132C30.6728 10.2989 30.7675 10.6101 30.6634 10.8554C30.6281 10.9388 30.5412 11.0705 30.2596 11.3078C30.0608 11.4753 29.7463 11.7224 29.3407 12.1238C28.9351 12.5252 28.4532 13.0646 27.9202 13.6209C27.3871 14.1773 26.8202 14.7338 26.5131 15.0469C26.206 15.36 26.1602 15.4277 25.9263 15.7301C25.6924 16.0326 25.2828 16.554 24.8099 17.123C24.3369 17.692 23.8287 18.3023 23.4805 18.6537C22.9978 19.1409 22.621 19.4836 22.3767 19.4932C22.2642 19.4976 22.1618 19.4981 22.0981 19.4694C22.0663 19.455 22.0325 19.4379 22.0065 19.4167C21.9886 19.4467 21.9739 19.4725 21.963 19.4932C21.75 19.8958 21.9659 19.264 21.9623 19.3351C21.9606 19.3677 21.9792 19.3945 22.0065 19.4167C22.2377 19.029 22.999 17.9326 22.999 17.9326C22.999 17.9326 23.1021 17.3338 23.2225 17.123C23.3428 16.9121 23.4083 16.5497 23.5008 16.2515C23.5451 16.1086 23.5611 15.7315 23.6726 15.2207C23.7259 14.9764 23.7955 14.784 23.9666 14.5876C24.2582 14.2528 24.4564 14.0546 24.7738 13.7979C24.8914 13.7027 25.1731 13.5603 25.5972 13.3124C25.9927 13.0813 26.4175 12.8264 26.7432 12.5282C26.9382 12.3497 27.0521 12.2202 27.121 12.09C27.2162 11.9101 27.3143 11.7594 27.4639 11.5725L27.4712 11.5633C27.6583 11.3295 27.939 10.9786 28.4979 10.624C28.7487 10.4649 28.9361 10.3244 29.2215 10.2205Z" fill="#80C985"/>
<path d="M30.178 10.0067C30.0904 10.0067 29.6091 10.0794 29.2215 10.2205C28.9361 10.3244 28.7487 10.4649 28.4979 10.624C27.9316 10.9833 27.6509 11.3388 27.4639 11.5725C27.3143 11.7594 27.2162 11.9101 27.121 12.09C27.0521 12.2202 26.9382 12.3497 26.7432 12.5282C26.4175 12.8264 25.9927 13.0813 25.5972 13.3124C25.1731 13.5603 24.8914 13.7027 24.7738 13.7979C24.4564 14.0546 24.2582 14.2528 23.9666 14.5876C23.7955 14.784 23.7259 14.9764 23.6726 15.2207C23.5611 15.7315 23.5451 16.1085 23.5008 16.2515C23.4083 16.5497 23.3428 16.9121 23.2225 17.123C23.1021 17.3338 22.999 17.9326 22.999 17.9326C22.999 17.9326 22.1152 19.2053 21.963 19.4932C21.75 19.8958 21.9659 19.264 21.9623 19.3351C21.9591 19.3988 22.0329 19.4399 22.0981 19.4694C22.1618 19.4981 22.2642 19.4976 22.3767 19.4932C22.621 19.4836 22.9978 19.1409 23.4805 18.6537C23.8287 18.3023 24.3369 17.692 24.8099 17.123C25.2828 16.554 25.6924 16.0326 25.9263 15.7301C26.1602 15.4277 26.206 15.36 26.5131 15.0469C26.8202 14.7338 27.3871 14.1773 27.9202 13.6209C28.4532 13.0646 28.9351 12.5252 29.3407 12.1238C29.7463 11.7224 30.0608 11.4753 30.2596 11.3078C30.5412 11.0705 30.6281 10.9388 30.6634 10.8554C30.7675 10.6101 30.6728 10.2989 30.5958 10.132C30.5751 10.0872 30.5459 10.0508 30.5176 10.0289C30.4597 10.0025 30.3727 9.99791 30.2741 10.0046C30.232 10.0112 30.234 9.98973 30.178 10.0067Z" stroke="#80C985" stroke-linecap="round"/>
<path d="M30.8222 10.5307C30.6713 10.3399 30.499 9.93262 30.4597 10.0268C30.4124 10.1397 30.569 11.1139 30.5107 11.1267C30.4525 11.1395 30.3907 11.1466 30.2873 11.1732C29.8452 11.2979 29.4517 11.3253 28.8462 11.7631C28.4636 12.0396 27.7879 12.5431 26.7036 13.6595C25.6193 14.7758 24.1495 16.4368 23.4258 17.3272C22.5643 18.3869 22.3726 18.5918 22.2184 18.8517C22.0483 19.1384 21.9438 19.3501 21.8498 19.6104C21.7511 19.8836 21.6922 20.1505 21.6543 20.4326C21.5949 20.8745 21.487 21.8456 21.4453 22.3473C21.418 22.6743 21.3178 23.4585 21.329 24.572C21.3451 26.164 21.4119 26.8513 21.6543 27.112C21.8424 27.3143 22.1073 27.6158 22.4566 27.6189L22.4672 27.619C23.0845 27.6243 23.4588 27.6276 23.7558 27.3247C23.9374 27.1395 24.242 26.7497 24.7283 25.6568C25.0759 24.8759 25.5819 23.6471 25.8826 22.9437C26.1834 22.2404 26.276 22.0676 26.4534 21.8135C26.6308 21.5593 26.8853 21.2337 27.4003 20.6417C27.9152 20.0497 28.6912 19.2352 29.1901 18.5845C29.9958 17.5338 30.3644 17.0277 30.5338 16.6151C31.0955 15.2464 31.2967 14.9961 31.3016 14.1024C31.3073 13.0454 31.2682 12.2967 31.2443 12.0903C31.2248 11.922 31.2123 11.6677 31.1274 11.3717C31.0154 10.9806 30.9632 10.7089 30.8222 10.5307Z" fill="#80C985" stroke="#80C985" stroke-linecap="round"/>
<path d="M35.1611 13.6484C35.1926 13.6512 35.4592 13.8237 35.7001 14.0529C35.8232 14.1701 35.9514 14.3578 36.0888 14.5811C36.3197 15.056 36.4193 15.3317 36.4298 15.3943C36.4342 15.4326 36.4364 15.4842 36.4387 15.5374" stroke="#2C4A2E" stroke-linecap="round"/>
<path d="M25.2764 13.4326C25.2449 13.4354 24.9783 13.6079 24.7374 13.8371C24.6143 13.9542 24.4861 14.142 24.3487 14.3653C24.1178 14.8402 24.0182 15.1159 24.0077 15.1785C24.0033 15.2168 24.0011 15.2684 23.9988 15.3216" stroke="#2C4A2E" stroke-linecap="round"/>
</svg>
