<svg width="60" height="60" viewBox="0 0 60 60" fill="none" xmlns="http://www.w3.org/2000/svg">
<path d="M16.6238 45.0501C19.4454 49.352 21.8124 52.0655 21.8607 52.1848C23.6864 52.1848 25.4585 52.1848 26.5777 52.2434C28.1495 52.4156 29.0908 52.391 29.7693 51.971C29.9736 51.6852 29.9259 51.258 29.8442 50.8457C29.523 49.2244 29.0137 47.5904 26.634 43.7223C23.7461 39.0279 20.4594 34.3505 16.9078 31.437C13.4186 28.5748 11.2101 26.8934 10.7711 26.0375C10.3667 25.2489 10.6093 35.8801 16.6238 45.0501Z" fill="#156F1D"/>
<path d="M21.4564 34.8855C21.3271 45.3095 21.7895 50.888 21.806 51.9166C22.8485 51.7413 24.8796 52.0846 25.5903 52.0475C26.3009 52.0104 26.7453 51.9713 27.1801 51.9517C29.0297 51.8183 36.7395 54.2175 38.9232 51.138C39.3819 50.4911 39.8643 46.4586 39.0705 39.4074C38.6674 35.8259 37.9102 32.2721 36.5247 28.0542C35.1392 23.8363 33.1093 19.1257 31.8501 15.6083C29.8222 9.944 29.0432 6.68548 28.8243 7.02402C28.4427 7.61394 26.1609 14.1206 23.4482 24.5175C22.2829 28.9836 21.4929 31.9429 21.4564 34.8855Z" fill="#1F9128"/>
<path d="M30.4397 42.6008C28.6381 47.4478 28.2524 51.6698 28.2139 52.8331C28.6855 52.8644 29.6498 52.8501 30.39 52.8331C32.0641 52.7949 34.2268 52.6343 35.8548 52.6343C37.9134 52.6343 40.1741 53.0047 41.2112 51.3409C42.0817 49.9444 43.4586 48.7634 44.6287 46.3427C45.6687 44.1914 48.2354 41.1967 46.8625 35.8021C45.764 31.486 42.5892 24.4895 40.8794 21.1679C40.5791 20.5846 40.3332 20.2117 39.8807 20.9603C39.4281 21.709 38.8455 23.5492 38.3331 24.6449C37.6157 26.1791 34.1302 32.6723 30.4397 42.6008Z" fill="#156F1D"/>
<path d="M37.1795 47.7416C36.7331 49.6278 35.279 52.6344 35.8545 52.6344C37.0755 52.6344 38.8888 52.7085 40.3316 52.6344C41.7744 52.5603 44.1751 52.0754 45.5547 51.985C48.1672 51.4172 49.7786 50.7821 51.0797 49.7463L51.0861 49.7412C52.641 48.5033 54.6858 46.8755 54.6328 41.8101C54.5471 33.6093 55.0349 26.5764 52.8522 26.3346C52.6893 26.3165 52.5969 26.7305 52.3275 27.1847C49.9493 31.1932 45.1357 36.935 42.2621 39.8129C40.0709 42.0073 37.8052 45.0983 37.1795 47.7416Z" fill="#1F9128"/>
<path d="M13.9612 52.4511C19.0322 52.6831 28.1215 53.4479 31.3775 52.6339C32.0193 52.4734 30.8416 51.8371 30.6784 51.4649C30.3203 50.7353 29.6977 49.7021 28.9309 48.5384C27.5802 46.8646 26.0966 45.148 23.7517 44.2758C21.1474 43.307 8.51249 38.2533 5.00309 42.3582C4.95942 42.4093 5.38852 42.5536 5.65163 42.8839C7.99448 45.8252 11.0553 52.3182 13.9612 52.4511Z" fill="#156F1D"/>
</svg>
