<svg width="60" height="60" viewBox="0 0 60 60" fill="none" xmlns="http://www.w3.org/2000/svg">
<path d="M15.2312 40.9917C15.8558 47.3901 15.749 49.0248 15.749 49.0527C15.749 49.6666 15.5961 49.9549 15.8721 49.9549C16.4848 49.9549 18.749 50.0527 19.749 50.0527C20.1529 50.0527 20.2316 49.7574 20.249 48.5527C20.2667 47.3251 19.8875 44.8849 19.2795 40.866C18.6716 36.847 17.5467 31.2278 16.6516 27.4729C15.7565 23.7181 15.1286 21.8766 14.5781 20.4486C13.6379 18.0098 13.0259 16.0893 12.0137 14.3896C10.7933 12.3401 9.71371 10.9274 9.19866 10.2239C8.96854 9.90957 8.84271 9.64242 9.36962 11.5085C9.89653 13.3746 11.0415 17.2562 12.2322 23.0555C13.4228 28.8547 14.7759 36.3271 15.2312 40.9917Z" fill="#CDA96A"/>
<path d="M19.4084 43.2549C19.2372 46.4662 19.1929 47.9891 19.1818 48.4944C19.1911 48.5553 19.196 48.6201 19.1805 48.6942C19.1353 48.9095 18.9996 49.0573 19 49.2277C19.0004 49.4102 20.6889 49.4102 21.4131 49.4102H24.9131C25.2881 49.4102 25.041 48.2044 24.8811 46.2371C24.7406 44.5093 24.5183 41.3846 24.6222 35.6883C24.7261 29.9919 25.1434 21.967 25.3406 17.8102C25.5378 13.6533 25.5154 13.373 24.9892 14.7245C24.463 16.0761 23.4631 18.9719 22.614 22.2011C21.7648 25.4302 21.0869 28.8879 20.5457 32.696C20.0044 36.5041 19.5533 40.5366 19.4084 43.2549Z" fill="#A4844D"/>
<path d="M26.0394 41.6033C24.3487 46.537 23.5955 49.2926 24.2149 49.2926H25.2149H28.346C32.1856 49.2926 31.2415 49.6773 31.4742 48.1158C31.7149 46.5 32.1508 44.432 32.9161 42.5938C33.7881 40.4993 34.5415 38.6964 35.664 37.452C37.1455 35.8096 38.7702 34.1343 40.6414 33.1253C42.5863 32.0765 46.0504 31.1106 49.4349 30.0622C50.5082 29.7297 50.3147 29.6436 49.7663 29.5196C48.3503 29.1994 45.1482 28.7443 41.4733 29.1782C39.3626 29.4273 37.4375 29.9614 35.3721 31.1651C33.5674 32.2169 32.0673 33.2357 30.6937 34.8849C28.667 37.3183 26.7806 39.4404 26.0394 41.6033Z" fill="#CDA96A"/>
</svg>
