<svg width="60" height="60" viewBox="0 0 60 60" fill="none" xmlns="http://www.w3.org/2000/svg">
<path d="M27.629 21.1943C28.4189 22.6173 28.7744 24.1852 28.8225 24.647C29.5484 24.9927 29.8565 25.462 29.9727 26.0196C30.089 27.3784 29.8272 28.9283 29.3023 30.2883C29.1079 30.5774 28.8358 30.8676 28.3326 30.9157C27.1521 31.0285 25.9892 31.092 25.2889 30.6772C23.9534 29.8862 23.0165 28.2913 22.6191 26.3987C22.1345 24.0906 21.5099 22.9856 22.6193 20.668C22.9836 19.907 24.3672 19.8976 25.4727 20.1422C26.3254 20.3309 27.2337 20.4821 27.629 21.1943Z" fill="#D8D8D8"/>
<mask id="mask0_2707_385" style="mask-type:alpha" maskUnits="userSpaceOnUse" x="22" y="20" width="8" height="11">
<path d="M27.629 21.1943C28.4189 22.6173 28.7744 24.1852 28.8225 24.647C29.5484 24.9927 29.8565 25.462 29.9727 26.0196C30.089 27.3784 29.8272 28.9283 29.3023 30.2883C29.1079 30.5774 28.8358 30.8676 28.3326 30.9157C27.1521 31.0285 25.9892 31.092 25.2889 30.6772C23.9534 29.8862 23.0165 28.2913 22.6191 26.3987C22.1345 24.0906 21.5099 22.9856 22.6193 20.668C22.9836 19.907 24.3672 19.8976 25.4727 20.1422C26.3254 20.3309 27.2337 20.4821 27.629 21.1943Z" fill="#D8D8D8"/>
</mask>
<g mask="url(#mask0_2707_385)">
<path d="M22.0573 24.8787C21.4172 24.2631 21.0147 23.825 21 23.7903C21.0493 24.9678 21.1565 26.6123 21.2388 27.5012C21.3211 28.3902 21.4389 28.9927 21.598 29.5756C21.7572 30.1585 21.9519 30.7053 22.0718 31.0197C22.1916 31.3342 22.2327 31.4157 22.3427 31.5718C22.6156 31.9592 22.8869 32.333 23.11 32.5295C23.2644 32.6655 23.3904 32.7751 23.535 32.8338C23.7896 32.9371 24.4526 33.0696 25.0738 32.8121C25.4816 32.6431 25.7862 32.504 26.4951 32.3689C27.1282 32.2482 28.2859 32.0391 28.9988 31.8737C29.7117 31.7084 29.972 31.5903 30.2097 31.4613C30.4473 31.3324 30.6632 31.2054 30.8562 31.038C31.2426 30.7028 31.5715 30.3806 31.7426 30.0697C31.8819 29.8166 32.0322 29.4886 32.0871 28.9578C32.1196 28.6432 32.1263 28.2374 31.911 27.257C31.6957 26.2766 31.2712 24.7672 30.9339 23.8014C30.5966 22.8356 30.3538 22.4258 30.2179 22.2097C30.0821 21.9936 30.0541 21.9718 30.02 22.0235C29.986 22.0752 29.948 22.1971 29.8882 22.3679C29.7532 22.7536 29.5832 23.1537 29.2554 23.604C29.0452 23.8929 28.738 24.2876 28.4643 24.5708C28.1905 24.854 27.9571 25.0206 27.5797 25.2251C27.2024 25.4297 26.7008 25.6755 26.4146 25.7877C26.0764 25.9203 25.5958 25.9539 24.8415 25.8876C24.4952 25.8572 24.2213 25.8014 24.0616 25.7749C23.8595 25.7415 23.527 25.6782 23.0677 25.4973C22.75 25.3721 22.4448 25.2513 22.0573 24.8787Z" fill="#929292"/>
</g>
<path d="M35.5 31.5C35.5 34.5376 30.5376 37 27.5 37C24.4624 37 22 34.5376 22 31.5C22 28.4624 24.4624 26 27.5 26C30.5376 26 35.5 28.4624 35.5 31.5Z" fill="black"/>
<path d="M29.4755 24.5976C29.1788 25.0926 29.0242 25.5719 29 25.6958C29.0382 25.9322 29.232 31.3868 29.2841 31.5149C29.3362 31.643 29.4013 31.7445 29.4828 31.8196C29.6591 31.9419 29.9968 32.0513 30.4499 31.9744C31.4482 31.805 34.0752 31.76 35.7487 30.6386C36.6435 30.0391 38.332 28.7008 38.7473 27.7743C39.3207 26.4948 38.8232 24.8535 38.201 24.0423C37.7582 23.4651 36.5277 22.0517 35.3264 22.0145C34.4222 21.9865 33.4647 21.9764 32.7567 22.2034C31.6295 22.5649 30.1733 23.4335 29.4755 24.5976Z" fill="#D8D8D8" stroke="#D8D8D8" stroke-width="2" stroke-linecap="round"/>
<path d="M24.5 35C24.4963 35.1603 23.8415 36.6958 23.3306 37.3611C23.2243 37.5087 23.1807 37.6021 23.1375 37.6928C23.0943 37.7834 23.0527 37.8684 23 38" stroke="black" stroke-width="2" stroke-linecap="round"/>
<path d="M29 37C29 37.0092 29 37.0185 29 37.1266C29 37.2348 29 37.4416 29 37.74C29 38.0384 29 38.4221 29 39" stroke="black" stroke-width="2" stroke-linecap="round"/>
<path d="M32 35C32 35.0117 32 35.137 32.019 35.3814C32.076 35.6343 32.3574 36.3477 32.7415 37.2837C32.8833 37.6377 32.9176 37.7462 33 38" stroke="black" stroke-width="2" stroke-linecap="round"/>
<mask id="mask1_2707_385" style="mask-type:alpha" maskUnits="userSpaceOnUse" x="27" y="20" width="13" height="13">
<path d="M29.4755 24.5976C29.1788 25.0926 29.0242 25.5719 29 25.6958C29.0382 25.9322 29.232 31.3868 29.2841 31.5149C29.3362 31.643 29.4013 31.7445 29.4828 31.8196C29.6591 31.9419 29.9968 32.0513 30.4499 31.9744C31.4482 31.805 34.0752 31.76 35.7487 30.6386C36.6435 30.0391 38.332 28.7008 38.7473 27.7743C39.3207 26.4948 38.8232 24.8535 38.201 24.0423C37.7582 23.4651 36.5277 22.0517 35.3264 22.0145C34.4222 21.9865 33.4647 21.9764 32.7567 22.2034C31.6295 22.5649 30.1733 23.4335 29.4755 24.5976Z" fill="#D8D8D8" stroke="#D8D8D8" stroke-width="2" stroke-linecap="round"/>
</mask>
<g mask="url(#mask1_2707_385)">
<path d="M28.488 32.3254C28.0504 32.451 27.9778 32.4534 27.9806 32.4534C28.0305 32.5483 27.9416 32.7502 27.9759 32.8054C28.0463 32.9077 28.2467 33.0662 28.5768 33.2708C28.9237 33.45 29.1516 33.5601 29.6361 33.5712C30.0696 33.5812 30.862 33.5868 31.8719 33.513C32.8818 33.4392 34.0729 33.2905 35.1316 33.0466C36.1903 32.8027 37.0893 32.4737 37.6777 32.2172C38.2661 31.9607 38.5358 31.7822 38.8418 31.5408C39.1478 31.2994 39.4932 31.0161 39.7388 30.7374C40.1771 30.2401 40.4758 29.8137 40.6034 29.3621C40.7485 28.8483 40.8252 28.5219 40.8135 28.1611C40.8034 27.8518 40.7807 27.3015 40.7421 26.8817C40.7036 26.4619 40.6507 26.1812 40.4032 25.4928C40.1557 24.8044 39.7266 23.7406 39.4902 23.1753C39.2538 22.6101 39.2114 22.5452 39.0099 22.3002C38.8083 22.0552 38.4582 21.6424 38.2613 21.4153C38.0645 21.1881 38.0222 21.1478 37.9208 21.5017C37.8194 21.8556 37.6636 22.5818 37.3713 23.5437C37.0789 24.5057 36.6552 25.6657 36.4497 26.2754C36.2281 26.9329 36.1833 27.0449 35.8587 27.399C35.5799 27.703 35.0777 28.2399 34.5109 28.7548C33.9441 29.2697 33.3313 29.7481 32.5922 30.2389C31.8531 30.7298 31.0132 31.2181 30.2579 31.5881C29.5026 31.958 28.857 32.2195 28.488 32.3254Z" fill="#929292"/>
</g>
</svg>
