<svg width="60" height="60" viewBox="0 0 60 60" fill="none" xmlns="http://www.w3.org/2000/svg">
<path d="M56 31C56 27.6105 53.7162 24.336 49.5726 21.7844C45.429 19.2328 39.7068 17.5773 33.4682 17.1251C27.2296 16.673 20.8982 17.4549 15.6491 19.3258C10.4 21.1967 6.58964 24.0295 4.92527 27.2984C3.2609 30.5673 3.85552 34.0504 6.59879 37.1011C9.34205 40.1519 14.0476 42.5631 19.8422 43.8874C25.6368 45.2116 32.1268 45.3589 38.1078 44.3019C44.0888 43.2449 49.1545 41.0554 52.3648 38.1398L30 31H56Z" fill="#116818"/>
<path d="M56 29C56 25.6105 53.7162 22.336 49.5726 19.7844C45.429 17.2328 39.7068 15.5773 33.4682 15.1251C27.2296 14.673 20.8982 15.4549 15.6491 17.3258C10.4 19.1967 6.58964 22.0295 4.92527 25.2984C3.2609 28.5673 3.85552 32.0504 6.59879 35.1011C9.34205 38.1519 14.0476 40.5631 19.8422 41.8873C25.6368 43.2116 32.1268 43.3589 38.1078 42.3019C44.0888 41.2449 49.1545 39.0554 52.3648 36.1398L30 29H56Z" fill="#218F2A"/>
</svg>
