<svg width="60" height="60" viewBox="0 0 60 60" fill="none" xmlns="http://www.w3.org/2000/svg">
<path d="M14.3246 41.96C13.5199 42.1099 13.1955 43.1035 13.8128 43.6412C15.9463 45.4998 18.4342 46.919 21.1341 47.8087C24.4594 48.9045 28.0037 49.1634 31.4529 48.5623C34.9022 47.9611 38.15 46.5186 40.9086 44.3625C43.6672 42.2064 45.8515 39.4033 47.268 36.2014C48.6845 32.9995 49.2894 29.4976 49.0293 26.0061C48.7692 22.5145 47.652 19.141 45.7766 16.1843C43.9013 13.2276 41.3257 10.7791 38.2781 9.05559C35.7948 7.65121 33.0605 6.76353 30.2394 6.43785C29.4319 6.34463 28.9155 7.24251 29.3355 7.93839C31.898 12.1842 38.1206 23.7297 34.8513 30.9262C31.5968 38.0902 19.1572 41.0603 14.3246 41.96Z" fill="#F1C339"/>
<mask id="mask0_2707_441" style="mask-type:alpha" maskUnits="userSpaceOnUse" x="13" y="6" width="37" height="43">
<path d="M14.3246 41.96C13.5199 42.1099 13.1955 43.1035 13.8128 43.6412C15.9463 45.4998 18.4342 46.919 21.1341 47.8087C24.4594 48.9045 28.0037 49.1634 31.4529 48.5623C34.9022 47.9611 38.15 46.5186 40.9086 44.3625C43.6672 42.2064 45.8515 39.4033 47.268 36.2014C48.6845 32.9995 49.2894 29.4976 49.0293 26.0061C48.7692 22.5145 47.652 19.141 45.7766 16.1843C43.9013 13.2276 41.3257 10.7791 38.2781 9.05559C35.7948 7.65121 33.0605 6.76353 30.2394 6.43785C29.4319 6.34463 28.9155 7.24251 29.3355 7.93839C31.898 12.1842 38.1206 23.7297 34.8513 30.9262C31.5968 38.0902 19.1572 41.0603 14.3246 41.96Z" fill="#F1C339"/>
</mask>
<g mask="url(#mask0_2707_441)">
<path d="M16.7913 43.4785C14.7701 42.8811 11.6611 41.7919 11.5 41.7892C11.7279 42.2227 12.6232 44.466 13 45C13.5111 45.7243 15.5067 46.0326 16.6757 47.1916C17.8448 48.3507 19.4516 49.7944 20.6919 50.6484C22.6223 51.9776 24.5552 52.9781 26.5971 53.4798C27.748 53.7626 29.6994 54.0124 33.3572 53.4827C35.5188 53.1696 38.2391 52.5693 39.9593 52.1091C41.6796 51.6488 42.395 51.3661 43.1059 50.9329C44.5665 50.0428 46.2673 48.8183 48.1214 46.5158C49.2511 45.1127 50.7054 43.2149 51.5134 41.7892C52.7526 39.6027 53.4597 38.1162 53.5046 35.3159C53.5387 33.194 53.434 29.726 53.1647 27.0595C52.8954 24.3931 52.4741 22.583 52.1374 21.3785C51.8007 20.174 51.556 19.5927 50.733 18.3874C49.91 17.1821 48.5779 15.3836 47.7217 14.3729C46.6057 13.0557 43.3983 8.90576 43.0064 10.4288C43.0011 10.4495 43.1132 10.6216 43.1777 10.795C43.5154 11.7036 44.1564 13.0414 44.4608 14.4233C44.7275 15.6343 45.1857 16.4575 44.7688 20.9056C44.5516 23.2231 44.13 26.7692 43.8885 28.61C43.6471 30.4508 43.5834 30.5807 43.5167 30.7745C43.3658 31.2126 42.8153 33.2512 41.3147 35.9479C40.2515 37.8586 39.3495 39.1976 37.8935 40.3491C35.7619 42.035 34.2762 43.0376 33.7531 43.3036C33.0335 43.6696 31.3585 44.3233 29.3211 44.763C28.3029 44.9827 26.2363 45.1972 22.4709 44.6541C20.4122 44.3571 18.0832 43.8604 16.7913 43.4785Z" fill="#C59F2E"/>
</g>
</svg>
