<svg width="60" height="60" viewBox="0 0 60 60" fill="none" xmlns="http://www.w3.org/2000/svg">
<path d="M15.0683 26C15.064 26.0123 15.0598 26.0246 14.7614 26.5179C14.463 27.0112 13.8707 27.9852 13.5253 28.5365C13.1799 29.0879 13.0994 29.1871 13 29.3306" stroke="#4BA0D5" stroke-width="2" stroke-linecap="round"/>
<path d="M27.3466 25C27.3379 25.0063 27.3293 25.0126 27.0192 25.4012C26.7091 25.7899 26.0979 26.5606 25.5408 27.3378C24.9837 28.1149 24.4992 28.875 24 29.6581" stroke="#4BA0D5" stroke-width="2" stroke-linecap="round"/>
<path d="M33.7391 32C33.7351 32.0116 33.7312 32.0231 33.123 32.6981C32.5147 33.373 31.3023 34.711 30 36.1707" stroke="#4BA0D5" stroke-width="2" stroke-linecap="round"/>
<path d="M43.4538 18.9189C43.3853 18.9936 43.3168 19.0682 42.7262 19.6319C42.1357 20.1955 41.0252 21.2459 39.834 22.3906" stroke="#4BA0D5" stroke-width="2" stroke-linecap="round"/>
<path d="M22.5246 41.0007C22.5246 40.9963 22.5246 40.9919 21.8417 41.6459C21.1587 42.2998 19.7928 43.6121 19.0308 44.3211C18.2689 45.0301 18.1524 45.096 18 45.2157" stroke="#4BA0D5" stroke-width="2" stroke-linecap="round"/>
<path d="M46.185 32.9805C46.1489 33.0182 46.1127 33.056 45.4147 33.8625C44.7167 34.669 43.358 36.243 41.75 38.0413" stroke="#4BA0D5" stroke-width="2" stroke-linecap="round"/>
<path d="M33.5912 47C33.5678 47.0231 33.3992 47.2013 32.9395 47.6191C32.6363 47.8706 32.191 48.2023 31.8408 48.5188C31.4906 48.8353 31.249 49.1265 31 49.4266" stroke="#4BA0D5" stroke-width="2" stroke-linecap="round"/>
<path d="M33.4523 10C33.438 10 33.2542 10.0795 32.4491 10.6847C31.8203 11.2104 30.7445 12.18 30.0853 12.804C29.4262 13.428 29.2163 13.6771 29 13.9338" stroke="#4BA0D5" stroke-width="2" stroke-linecap="round"/>
</svg>
