<svg width="60" height="60" viewBox="0 0 60 60" fill="none" xmlns="http://www.w3.org/2000/svg">
<path d="M25.1884 9.36433C26.5262 8.01128 26.5345 8.01128 26.5429 8.01128C26.9264 7.96768 27.7676 8.03771 28.8493 8.44818C29.5763 8.9181 30.9232 10.0897 32.1836 10.4333C34.2503 10.9966 35.1473 11.319 36.5434 12.2294C37.1758 12.6418 37.8846 12.6631 38.6764 13.2617C39.6916 14.0292 41.55 15.6555 42.5114 16.8373C42.7552 17.1369 44.1468 17.8383 45.6841 19.2796C47.1403 20.6447 48.2038 21.9881 48.7617 23.7959C49.0985 24.8873 49.5159 26.0887 49.9129 26.9304C50.1751 27.4864 51.4175 29.0296 51.9197 31.1116C52.0216 31.5344 52.1082 33.3903 51.6377 36.612C51.4074 38.1887 50.9577 39.6247 50.8471 40.9343C50.6426 43.3557 50.7316 45.0864 50.1848 46.0879C49.3974 47.5302 48.7722 48.4371 46.5549 49.8088C45.4814 50.4729 44.8934 51.3991 41.0224 51.7919C39.5438 51.9419 38.5192 51.7468 36.9109 51.6954C35.7763 51.6592 34.0245 51.6325 32.8404 51.756C31.0415 51.9438 30.269 52.0739 28.323 51.9823C26.533 51.898 23.1956 51.8456 21.1649 51.5273C18.3742 51.0898 17.2812 50.596 16.6522 50.1542C15.5143 49.355 14.2677 48.8432 11.7133 46.6817C10.4888 45.6455 9.58842 44.7355 9.21408 43.8942C8.9907 43.3922 8.82852 42.3291 9.3304 39.7858C9.67121 38.0587 10.3081 35.5208 10.7328 33.2991C11.1575 31.0774 11.3394 29.2246 11.5002 28.1702C11.7009 26.8539 12.0625 24.9844 13.2812 22.8144C14.2378 21.1111 14.7419 20.3195 15.7531 19.08C16.864 17.7183 17.8711 16.7085 19.6607 14.9337C21.1836 13.4235 23.8506 10.7174 25.1884 9.36433Z" fill="#8B8B8B"/>
<mask id="mask0_2707_2" style="mask-type:alpha" maskUnits="userSpaceOnUse" x="9" y="8" width="43" height="45">
<path d="M25.1884 9.36433C26.5262 8.01128 26.5345 8.01128 26.5429 8.01128C26.9264 7.96768 27.7676 8.03771 28.8493 8.44818C29.5763 8.9181 30.9232 10.0897 32.1836 10.4333C34.2503 10.9966 35.1473 11.319 36.5434 12.2294C37.1758 12.6418 37.8846 12.6631 38.6764 13.2617C39.6916 14.0292 41.55 15.6555 42.5114 16.8373C42.7552 17.1369 44.1468 17.8383 45.6841 19.2796C47.1403 20.6447 48.2038 21.9881 48.7617 23.7959C49.0985 24.8873 49.5159 26.0887 49.9129 26.9304C50.1751 27.4864 51.4175 29.0296 51.9197 31.1116C52.0216 31.5344 52.1082 33.3903 51.6377 36.612C51.4074 38.1887 50.9577 39.6247 50.8471 40.9343C50.6426 43.3557 50.7316 45.0864 50.1848 46.0879C49.3974 47.5302 48.7722 48.4371 46.5549 49.8088C45.4814 50.4729 44.8934 51.3991 41.0224 51.7919C39.5438 51.9419 38.5192 51.7468 36.9109 51.6954C35.7763 51.6592 34.0245 51.6325 32.8404 51.756C31.0415 51.9438 30.269 52.0739 28.323 51.9823C26.533 51.898 23.1956 51.8456 21.1649 51.5273C18.3742 51.0898 17.2812 50.596 16.6522 50.1542C15.5143 49.355 14.2677 48.8432 11.7133 46.6817C10.4888 45.6455 9.58842 44.7355 9.21408 43.8942C8.9907 43.3922 8.82852 42.3291 9.3304 39.7858C9.67121 38.0587 10.3081 35.5208 10.7328 33.2991C11.1575 31.0774 11.3394 29.2246 11.5002 28.1702C11.7009 26.8539 12.0625 24.9844 13.2812 22.8144C14.2378 21.1111 14.7419 20.3195 15.7531 19.08C16.864 17.7183 17.8711 16.7085 19.6607 14.9337C21.1836 13.4235 23.8506 10.7174 25.1884 9.36433Z" fill="#8B8B8B"/>
</mask>
<g mask="url(#mask0_2707_2)">
<path d="M12.4552 24.3847C11.2128 23.7641 10.6088 23.8278 10.4301 23.8183C10.1819 24.029 10.1446 24.3135 9.38527 26.9559C8.62597 29.5984 7.18829 34.4518 6.46006 37.4933C5.73183 40.5348 5.68843 41.7289 5.72164 42.411C5.76303 43.2612 5.79215 43.8422 6.55675 45.1439C6.90267 45.7328 7.60554 46.675 9.42204 48.1422C10.5892 49.0849 12.2858 50.3335 13.3277 51.0536C14.3696 51.7737 14.7455 51.9596 16.0246 52.3705C17.3037 52.7815 19.4219 53.3987 21.0136 53.7563C22.6052 54.114 23.639 54.2091 25.0278 54.1932C26.4166 54.1774 28.1091 54.0544 29.089 53.9559C30.0688 53.8573 30.3282 53.7855 30.5623 53.705C30.7964 53.6245 30.9991 53.538 31.0943 52.9316C31.1895 52.3252 31.1777 51.2321 31.0588 49.8685C30.94 48.5049 30.7207 46.9189 30.5189 44.8542C30.3172 42.7896 30.1383 40.321 29.9629 38.621C29.7874 36.9209 29.7102 35.9849 29.426 35.3258C28.6544 33.5359 28.1482 32.8167 27.2927 32.2552C26.6363 31.8243 24.4812 30.7872 23.1262 30.0762C21.5648 29.2568 20.7687 28.8249 19.8773 28.2804C19.5458 28.0779 18.5408 27.6463 16.4159 26.5342C15.1058 25.8485 13.3936 24.8535 12.4552 24.3847Z" fill="#3D3D3D"/>
</g>
<mask id="mask1_2707_2" style="mask-type:alpha" maskUnits="userSpaceOnUse" x="9" y="8" width="43" height="45">
<path d="M25.1884 9.36433C26.5262 8.01128 26.5345 8.01128 26.5429 8.01128C26.9264 7.96768 27.7676 8.03771 28.8493 8.44818C29.5763 8.9181 30.9232 10.0897 32.1836 10.4333C34.2503 10.9966 35.1473 11.319 36.5434 12.2294C37.1758 12.6418 37.8846 12.6631 38.6764 13.2617C39.6916 14.0292 41.55 15.6555 42.5114 16.8373C42.7552 17.1369 44.1468 17.8383 45.6841 19.2796C47.1403 20.6447 48.2038 21.9881 48.7617 23.7959C49.0985 24.8873 49.5159 26.0887 49.9129 26.9304C50.1751 27.4864 51.4175 29.0296 51.9197 31.1116C52.0216 31.5344 52.1082 33.3903 51.6377 36.612C51.4074 38.1887 50.9577 39.6247 50.8471 40.9343C50.6426 43.3557 50.7316 45.0864 50.1848 46.0879C49.3974 47.5302 48.7722 48.4371 46.5549 49.8088C45.4814 50.4729 44.8934 51.3991 41.0224 51.7919C39.5438 51.9419 38.5192 51.7468 36.9109 51.6954C35.7763 51.6592 34.0245 51.6325 32.8404 51.756C31.0415 51.9438 30.269 52.0739 28.323 51.9823C26.533 51.898 23.1956 51.8456 21.1649 51.5273C18.3742 51.0898 17.2812 50.596 16.6522 50.1542C15.5143 49.355 14.2677 48.8432 11.7133 46.6817C10.4888 45.6455 9.58842 44.7355 9.21408 43.8942C8.9907 43.3922 8.82852 42.3291 9.3304 39.7858C9.67121 38.0587 10.3081 35.5208 10.7328 33.2991C11.1575 31.0774 11.3394 29.2246 11.5002 28.1702C11.7009 26.8539 12.0625 24.9844 13.2812 22.8144C14.2378 21.1111 14.7419 20.3195 15.7531 19.08C16.864 17.7183 17.8711 16.7085 19.6607 14.9337C21.1836 13.4235 23.8506 10.7174 25.1884 9.36433Z" fill="#8B8B8B"/>
</mask>
<g mask="url(#mask1_2707_2)">
<path d="M31.0349 52.5247C31.0789 53.1992 31.3422 53.5814 31.3483 53.7229C31.7595 53.8847 31.8565 54.2098 32.4129 54.3237C33.7664 54.5556 35.0631 54.7339 37.9323 54.6553C38.7177 54.5618 39.5649 54.4307 39.6929 53.3501C40.0343 50.4691 40.0476 48.0522 40.2632 47.142C40.4045 46.5453 40.5174 46.2013 40.6637 45.9736C40.9814 45.4793 41.5464 44.3628 42.1696 43.6644C42.89 42.857 43.6725 42.2576 43.6184 41.7154C43.6053 41.5842 43.5655 41.436 43.4479 41.3925C43.1975 41.2999 42.8988 41.2559 41.7136 41.196C38.8049 41.0488 36.7993 40.9517 36.2742 40.8016C35.2077 40.4968 35.1392 40.3799 34.8532 40.1726C34.3144 39.7822 33.619 39.1753 33.1296 38.449C32.7166 37.836 32.4274 36.995 31.6934 36.151C30.8024 35.1266 27.7373 32.1306 27.3847 31.8422C24.2247 29.2569 28.9652 35.1214 29.6824 37.8746C29.9905 39.0571 29.9724 39.8199 30.0447 40.4599C30.1058 41.0008 30.3824 42.8425 30.5446 45.9736C30.6975 48.9267 30.9781 51.653 31.0349 52.5247Z" fill="#525252"/>
</g>
<mask id="mask2_2707_2" style="mask-type:alpha" maskUnits="userSpaceOnUse" x="9" y="8" width="43" height="45">
<path d="M25.1884 9.36433C26.5262 8.01128 26.5345 8.01128 26.5429 8.01128C26.9264 7.96768 27.7676 8.03771 28.8493 8.44818C29.5763 8.9181 30.9232 10.0897 32.1836 10.4333C34.2503 10.9966 35.1473 11.319 36.5434 12.2294C37.1758 12.6418 37.8846 12.6631 38.6764 13.2617C39.6916 14.0292 41.55 15.6555 42.5114 16.8373C42.7552 17.1369 44.1468 17.8383 45.6841 19.2796C47.1403 20.6447 48.2038 21.9881 48.7617 23.7959C49.0985 24.8873 49.5159 26.0887 49.9129 26.9304C50.1751 27.4864 51.4175 29.0296 51.9197 31.1116C52.0216 31.5344 52.1082 33.3903 51.6377 36.612C51.4074 38.1887 50.9577 39.6247 50.8471 40.9343C50.6426 43.3557 50.7316 45.0864 50.1848 46.0879C49.3974 47.5302 48.7722 48.4371 46.5549 49.8088C45.4814 50.4729 44.8934 51.3991 41.0224 51.7919C39.5438 51.9419 38.5192 51.7468 36.9109 51.6954C35.7763 51.6592 34.0245 51.6325 32.8404 51.756C31.0415 51.9438 30.269 52.0739 28.323 51.9823C26.533 51.898 23.1956 51.8456 21.1649 51.5273C18.3742 51.0898 17.2812 50.596 16.6522 50.1542C15.5143 49.355 14.2677 48.8432 11.7133 46.6817C10.4888 45.6455 9.58842 44.7355 9.21408 43.8942C8.9907 43.3922 8.82852 42.3291 9.3304 39.7858C9.67121 38.0587 10.3081 35.5208 10.7328 33.2991C11.1575 31.0774 11.3394 29.2246 11.5002 28.1702C11.7009 26.8539 12.0625 24.9844 13.2812 22.8144C14.2378 21.1111 14.7419 20.3195 15.7531 19.08C16.864 17.7183 17.8711 16.7085 19.6607 14.9337C21.1836 13.4235 23.8506 10.7174 25.1884 9.36433Z" fill="#8B8B8B"/>
</mask>
<g mask="url(#mask2_2707_2)">
<path d="M13.8837 25.5223C12.696 24.8398 11.2676 24.2071 10.5537 23.7988C10.2912 23.6006 10.5016 22.5658 10.4854 22.3806C10.4694 21.9648 10.4923 21.5519 10.5538 21.2136C10.6484 20.9103 11.2243 20.1547 12.4137 18.8996C13.0664 18.2108 13.8277 17.438 15.2399 15.708C16.6521 13.9779 18.6438 11.3612 19.8337 9.85074C21.3584 7.91527 21.8241 7.33511 22.4155 6.96867C23.54 6.27205 24.4168 5.74201 25.2368 5.76644C26.9583 5.81772 28.8276 5.90084 30.3563 6.53667C32.2009 7.30385 33.8134 8.02383 34.9423 8.98677C36.3437 10.182 37.3282 11.211 37.9591 11.8802C38.709 12.6758 39.2863 13.2563 39.4799 13.6045C39.8709 14.3078 40.4645 15.4705 40.6308 16.7462C40.7588 17.7282 41.0476 19.1339 41.5429 21.753C41.7221 22.7007 41.8737 23.8954 41.7575 25.2299C41.6614 26.3329 41.3951 27.2623 40.8738 27.7758C40.4537 28.1895 39.6598 28.9019 38.992 29.3908C38.2236 29.9534 37.2485 30.4629 36.2208 31.1855C33.2642 33.2643 32.1117 34.3088 31.3369 34.2903C30.1933 34.2631 29.522 34.0866 29.0353 33.5708C28.5997 33.1092 28.0021 33.0331 27.3847 32.7037C26.6296 32.3008 25.0668 31.5695 23.3631 30.6929C22.7811 30.3934 21.3114 29.2903 20.1921 28.6738C19.3069 28.1862 18.767 28.1076 17.618 27.5331C16.7211 27.0846 15.5942 26.5052 13.8837 25.5223Z" fill="#525252"/>
</g>
<mask id="mask3_2707_2" style="mask-type:alpha" maskUnits="userSpaceOnUse" x="9" y="8" width="43" height="45">
<path d="M25.1884 9.36433C26.5262 8.01128 26.5345 8.01128 26.5429 8.01128C26.9264 7.96768 27.7676 8.03771 28.8493 8.44818C29.5763 8.9181 30.9232 10.0897 32.1836 10.4333C34.2503 10.9966 35.1473 11.319 36.5434 12.2294C37.1758 12.6418 37.8846 12.6631 38.6764 13.2617C39.6916 14.0292 41.55 15.6555 42.5114 16.8373C42.7552 17.1369 44.1468 17.8383 45.6841 19.2796C47.1403 20.6447 48.2038 21.9881 48.7617 23.7959C49.0985 24.8873 49.5159 26.0887 49.9129 26.9304C50.1751 27.4864 51.4175 29.0296 51.9197 31.1116C52.0216 31.5344 52.1082 33.3903 51.6377 36.612C51.4074 38.1887 50.9577 39.6247 50.8471 40.9343C50.6426 43.3557 50.7316 45.0864 50.1848 46.0879C49.3974 47.5302 48.7722 48.4371 46.5549 49.8088C45.4814 50.4729 44.8934 51.3991 41.0224 51.7919C39.5438 51.9419 38.5192 51.7468 36.9109 51.6954C35.7763 51.6592 34.0245 51.6325 32.8404 51.756C31.0415 51.9438 30.269 52.0739 28.323 51.9823C26.533 51.898 23.1956 51.8456 21.1649 51.5273C18.3742 51.0898 17.2812 50.596 16.6522 50.1542C15.5143 49.355 14.2677 48.8432 11.7133 46.6817C10.4888 45.6455 9.58842 44.7355 9.21408 43.8942C8.9907 43.3922 8.82852 42.3291 9.3304 39.7858C9.67121 38.0587 10.3081 35.5208 10.7328 33.2991C11.1575 31.0774 11.3394 29.2246 11.5002 28.1702C11.7009 26.8539 12.0625 24.9844 13.2812 22.8144C14.2378 21.1111 14.7419 20.3195 15.7531 19.08C16.864 17.7183 17.8711 16.7085 19.6607 14.9337C21.1836 13.4235 23.8506 10.7174 25.1884 9.36433Z" fill="#8B8B8B"/>
</mask>
<g mask="url(#mask3_2707_2)">
<path d="M44.9724 23.6724C46.5711 22.3661 48.0672 21.2139 48.0672 21.2139C48.0672 21.2139 50.306 22.5134 50.3876 22.6501C50.7102 23.242 53.2716 23.1044 53.8123 24.9482C54.0108 25.6878 58.4157 26.8678 58.6956 27.5335C59.047 28.3691 56.495 28.3376 56.9721 29.257C57.3223 29.9318 56.3568 32.0498 56.3976 33.8531C56.4245 35.0429 56.7405 37.7308 56.6848 39.0237C56.6075 40.8206 53.4821 41.2311 53.2378 42.4708C53.1082 43.1286 53.9519 44.0299 53.8123 44.7688C53.6486 45.635 53.5188 47.1989 53.2378 47.6614C52.799 48.3836 49.6493 48.8996 49.2162 49.0776C49.1161 49.1188 48.927 50.0369 48.3544 48.7904C48.311 48.6959 47.8645 47.7461 47.8021 47.6614C47.5554 47.3268 47.2278 47.0243 46.1715 45.3917C45.5357 44.409 44.5074 42.7469 43.467 40.7804C42.4267 38.8139 41.3588 36.6289 40.8268 35.2627C40.1168 33.4397 39.8415 32.688 39.8624 31.8583C39.9212 29.5237 40.0705 28.9279 40.5561 28.3251C41.0194 27.75 41.6943 26.7952 42.3967 26.1302C43.1946 25.3748 43.9646 24.4958 44.9724 23.6724Z" fill="#D9D9D9"/>
</g>
</svg>
