<svg width="60" height="60" viewBox="0 0 60 60" fill="none" xmlns="http://www.w3.org/2000/svg">
<path d="M29 13C29 13.0361 29 13.0721 29 18.6465C29 24.2209 29 35.3325 29 47" stroke="#4BA0D5" stroke-width="2" stroke-linecap="round"/>
<path d="M12 30.2626C12.0102 30.2626 12.0205 30.2626 17.0152 30.2223C22.0099 30.182 31.9887 30.1014 37.9652 30.11C43.9416 30.1187 45.6131 30.219 47.3506 30.3328" stroke="#4BA0D5" stroke-width="2" stroke-linecap="round"/>
<path d="M17 18C17.005 18.0153 17.0099 18.0306 17.8116 18.9611C18.6132 19.8915 20.2114 21.7367 24.3062 25.6744C28.401 29.6121 34.9439 35.5864 42 42" stroke="#4BA0D5" stroke-width="2" stroke-linecap="round"/>
<path d="M17 42C17 41.9949 17 41.9898 18.2301 40.6508C19.4603 39.3118 21.9206 36.639 25.4868 33.2163C29.053 29.7936 33.6507 25.702 36.1929 23.4008C38.7351 21.0996 40.5556 19.4152 41 19" stroke="#4BA0D5" stroke-width="2" stroke-linecap="round"/>
<path d="M16.9609 21.8651C18.0735 21.8651 20.4237 21.7557 20.613 21.2888C20.6887 20.3288 20.7232 19.5264 20.7621 19.0347C20.7754 18.7247 20.7754 18.2917 20.7754 17.8457" stroke="#4BA0D5" stroke-width="2" stroke-linecap="round"/>
<path d="M38.748 43.7003C38.748 43.6675 38.748 42.4219 38.9781 40.5519C40.3267 39.8416 41.3212 39.5966 42.3362 39.3059C42.7306 39.1903 42.88 39.1394 43.2008 39.0068" stroke="#4BA0D5" stroke-width="2" stroke-linecap="round"/>
<path d="M26 45C26.1039 44.727 26.9324 43.3507 28.1832 42.1285C28.4438 41.9557 28.6189 41.9116 29.385 42.2879C30.1511 42.6641 31 43.5 32 44.5" stroke="#4BA0D5" stroke-width="2" stroke-linecap="round"/>
<path d="M16 38C16.0235 38 17.4349 38 19.4912 38.387C20.1481 38.7741 20.0201 39.5481 19.9129 40.3608C19.8056 41.1735 19.7231 42.0014 19.602 43" stroke="#4BA0D5" stroke-width="2" stroke-linecap="round"/>
<path d="M14.2501 27C14.8024 27.7484 15.9295 29.3457 16 29.5991C15.9943 29.8645 15.4379 31.1162 14.5826 32.8811C14.2609 33.5331 14.1671 33.6905 14 34" stroke="#4BA0D5" stroke-width="2" stroke-linecap="round"/>
<path d="M37 19C37 19.0197 37 20.2415 37.0961 22.102C37.1299 22.7571 37.3842 22.8003 37.7806 22.8332C38.177 22.866 38.7719 22.8807 39.2241 22.9176C39.6763 22.9546 39.9677 23.0133 40.5632 23.109" stroke="#4BA0D5" stroke-width="2" stroke-linecap="round"/>
<path d="M44.9056 26.8711C44.9038 27.0189 44.6546 27.7818 43.9953 28.8736C43.7743 29.2395 43.5839 29.4851 43.4613 29.7549C43.4351 29.9109 43.482 30.1055 43.7993 30.7119C44.1166 31.3183 44.7028 32.3307 45.384 33.5775" stroke="#4BA0D5" stroke-width="2" stroke-linecap="round"/>
<path d="M26.4473 16.8594C26.5882 16.9479 27.5891 17.8083 28.457 18.5307C28.7455 18.7708 29.0295 18.9586 29.3682 18.9845C29.8576 18.6974 30.3864 18.325 30.963 17.9182C31.3008 17.6546 31.7302 17.2751 32.1727 16.884" stroke="#4BA0D5" stroke-width="2" stroke-linecap="round"/>
<path d="M19.6348 25.8148C20.6828 25.8146 23.1453 25.7501 23.7312 25.5546C23.8407 25.3107 23.9326 24.8034 24.0393 23.6572C24.0772 22.863 24.082 21.6371 24.087 20.374" stroke="#4BA0D5" stroke-width="2" stroke-linecap="round"/>
<path d="M34.8574 40.2225C34.8615 39.2427 34.9787 36.7465 35.3115 36.0881C36.216 35.9256 37.459 35.7371 38.0594 35.7267C38.357 35.7185 38.6402 35.7042 38.9319 35.6895" stroke="#4BA0D5" stroke-width="2" stroke-linecap="round"/>
<path d="M39.6484 33.4628C39.6119 33.265 39.2695 32.5449 38.6852 31.9019C38.4576 31.6513 38.2489 31.2925 38.0752 30.8569C38.2393 30.0203 39.0615 29.0289 39.8051 28.2674C40.1131 27.9434 40.2803 27.7458 40.589 27.4375" stroke="#4BA0D5" stroke-width="2" stroke-linecap="round"/>
<path d="M34 23C34 23.0124 34 24.0168 34.0224 25.631C34.0448 26.2472 34.0897 26.4513 34.6942 26.5665C35.2988 26.6817 36.4617 26.7018 37.6598 26.7225" stroke="#4BA0D5" stroke-width="2" stroke-linecap="round"/>
<path d="M26.918 22.3077C27.0593 22.3531 27.9956 22.8991 28.7235 23.3592C29.0461 23.3069 29.6441 22.9546 30.356 22.4636C30.6458 22.2523 30.7906 22.1177 31.1248 21.6611" stroke="#4BA0D5" stroke-width="2" stroke-linecap="round"/>
<path d="M21 34C21.0153 34 21.0305 34 21.6571 34C22.2836 34 23.5209 34 24.1669 34.5666C24.8129 35.1331 24.4823 36.3325 24.5 37.5" stroke="#4BA0D5" stroke-width="2" stroke-linecap="round"/>
<path d="M26 38.8975C26.249 38.6313 27.2632 37.6867 28.882 37C29.7735 37.473 30.8297 38.2947 31.517 38.7332C31.6615 38.8037 31.8101 38.8652 32.2672 39.1218" stroke="#4BA0D5" stroke-width="2" stroke-linecap="round"/>
<path d="M19.2487 32.5566C19.2652 32.3156 19.6932 31.3061 20.2631 30.6585C20.3718 30.5349 20.4783 30.4176 20.5082 30.2702C20.2232 29.3798 19.5256 28.3688 18.7952 27.9105C18.6132 27.8001 18.4684 27.7065 18.1992 27.5586" stroke="#4BA0D5" stroke-width="2" stroke-linecap="round"/>
</svg>
