<svg width="60" height="60" viewBox="0 0 60 60" fill="none" xmlns="http://www.w3.org/2000/svg">
<path d="M28.5979 10.8541C29.1966 9.01148 31.8034 9.01148 32.4021 10.8541L35.5516 20.5471C35.8193 21.3712 36.5872 21.9291 37.4537 21.9291L47.6455 21.9291C49.583 21.9291 50.3885 24.4083 48.8211 25.5471L40.5757 31.5377C39.8747 32.047 39.5814 32.9498 39.8492 33.7738L42.9986 43.4668C43.5973 45.3094 41.4884 46.8417 39.9209 45.7029L31.6756 39.7123C30.9746 39.203 30.0254 39.203 29.3244 39.7123L21.0791 45.7029C19.5116 46.8417 17.4027 45.3094 18.0014 43.4668L21.1508 33.7738C21.4186 32.9498 21.1253 32.047 20.4243 31.5377L12.1789 25.5471C10.6115 24.4083 11.417 21.9291 13.3545 21.9291L23.5463 21.9291C24.4128 21.9291 25.1807 21.3712 25.4484 20.5471L28.5979 10.8541Z" fill="#F1C339"/>
<path d="M48.3164 22.0381C49.747 22.5281 50.1925 24.5503 48.8213 25.5469L40.5761 31.5381C39.8752 32.0473 39.5819 32.9494 39.8496 33.7734L42.999 43.4668C43.5976 45.3093 41.4883 46.8418 39.9209 45.7031L31.6757 39.7119C30.9748 39.2027 30.0251 39.2027 29.3242 39.7119L21.0791 45.7031C19.5117 46.8418 17.4024 45.3093 18.0009 43.4668L18.1689 42.9463C18.7568 43.1845 19.46 43.1529 20.0791 42.7031L28.3242 36.7119C29.0251 36.2027 29.9748 36.2027 30.6757 36.7119L38.9209 42.7031C40.4883 43.8418 42.5976 42.3093 41.999 40.4668L38.8496 30.7734C38.5819 29.9494 38.8752 29.0473 39.5761 28.5381L47.8213 22.5469C48.0171 22.4046 48.1756 22.2412 48.2998 22.0645L48.3164 22.0381ZM19.4238 28.5381C20.1247 29.0473 20.418 29.9494 20.1504 30.7734L20.0009 31.2305L12.1787 25.5469C11.2427 24.8666 11.153 23.7084 11.6455 22.8857L19.4238 28.5381ZM32.2812 10.5605C32.327 10.6527 32.3686 10.7506 32.4023 10.8545L34.6689 17.8301C34.6234 17.7398 34.5837 17.6453 34.5517 17.5469L32.2812 10.5605Z" fill="#C6A02C"/>
</svg>
