<svg width="60" height="60" viewBox="0 0 60 60" fill="none" xmlns="http://www.w3.org/2000/svg">
<circle cx="29.5498" cy="29.6816" r="14" fill="#F89A2E"/>
<path d="M29.2168 6V13.4236" stroke="#F89A2E" stroke-width="2" stroke-linecap="round"/>
<path d="M29.7598 46.3896V53.7968" stroke="#F89A2E" stroke-width="2" stroke-linecap="round"/>
<path d="M6 30.209C6.01256 30.209 6.02512 30.209 7.14607 30.209C8.26702 30.209 10.496 30.209 12.8746 30.2317" stroke="#F89A2E" stroke-width="2" stroke-linecap="round"/>
<path d="M45.4414 30.6357H53.8847" stroke="#F89A2E" stroke-width="2" stroke-linecap="round"/>
<path d="M11.1221 10.6221C11.2135 10.6552 12.0859 11.2788 13.8961 12.7897C15.0019 13.7444 16.488 15.0805 17.2922 15.8003C18.0965 16.52 18.174 16.5828 18.396 16.7821" stroke="#F89A2E" stroke-width="2" stroke-linecap="round"/>
<path d="M41.1377 18.4071C41.1377 18.4104 41.1377 18.4137 42.0447 17.6639C42.9517 16.9141 44.7656 15.4111 45.9758 14.3372C47.186 13.2634 47.7374 12.6643 48.0656 12.3221C48.3937 11.98 48.482 11.913 48.6347 11.8213" stroke="#F89A2E" stroke-width="2" stroke-linecap="round"/>
<path d="M41.0137 41.9707C41.0317 41.9828 41.5576 42.4317 42.5744 43.3318C43.0819 43.7811 43.5426 44.2481 44.3372 44.9466C45.1318 45.6452 46.2386 46.5696 46.9263 47.1344C47.6139 47.6992 47.8487 47.8764 48.1327 48.0977" stroke="#F89A2E" stroke-width="2" stroke-linecap="round"/>
<path d="M17.3232 41.3838C17.3109 41.3838 16.6435 41.9267 15.606 42.7857C15.1489 43.1641 14.352 43.9076 13.0803 45.0229C12.2143 45.7158 11.6063 46.2319 11.1345 46.7105C10.9346 46.916 10.8153 47.0455 10.668 47.2126" stroke="#F89A2E" stroke-width="2" stroke-linecap="round"/>
<path d="M26.8755 18.8558C27.8282 18.4254 28.7999 18.3936 29.1425 18.3936C29.3932 18.4407 29.8485 18.5843 29.8878 18.655C29.927 18.7257 29.9354 18.8055 29.9316 18.8864C29.912 19.0469 29.574 19.7822 28.985 21.1901C28.6693 21.9446 28.3412 22.7835 27.9286 24.0974C27.5161 25.4114 27.0337 27.1478 26.7901 28.5084C26.5466 29.869 26.542 30.8248 26.5998 31.7149C26.6576 32.6049 26.7515 33.41 26.9021 34.0479C27.1652 35.1621 27.524 36.3374 28.3092 37.7062C29.2467 39.3402 30.3303 40.6665 30.0232 40.6808C29.586 40.7011 28.0417 40.5365 26.485 39.9768C25.5847 39.6531 24.5293 39.2412 23.6788 38.5336C22.8843 37.8726 22.2147 37.2226 21.5707 36.1951C21.1477 35.5201 20.5778 34.528 20.1768 33.6534C19.7758 32.7788 19.5351 32.0481 19.4316 31.6154C19.3007 31.0675 19.2927 29.7105 19.4891 27.8675C19.5703 27.1052 19.8998 26.1264 20.6947 24.6603C21.068 23.9719 21.4476 23.4233 22.0649 22.7299C22.6822 22.0365 23.512 21.223 24.4288 20.5045C25.3457 19.7861 26.2888 19.1208 26.8755 18.8558Z" fill="#FFD19D"/>
</svg>
