<svg width="60" height="60" viewBox="0 0 60 60" fill="none" xmlns="http://www.w3.org/2000/svg">
<path d="M26.2605 31.2071C26.4069 27.5509 35.0611 29.5402 35.0611 29.5402C35.0611 29.5402 34.99 29.9701 35.0368 32.0953C35.0837 34.2205 35.2084 38.1192 35.4085 40.8254C35.6087 43.5317 35.8763 45.001 36.3 46.4419C36.7236 47.8828 37.2157 49.2949 37.9339 50.4477C39.2931 52.6291 40.1192 53.7955 40.7234 54.1636C41.8698 54.8621 42.7078 55.3785 42.8932 55.6176C42.985 55.736 43.0691 55.9034 42.9135 55.9231C42.4199 55.9854 40.6489 56.3044 37.494 54.9466C36.103 54.348 34.5334 53.5952 33.08 51.875C30.058 48.2984 29.704 46.8773 29.5769 47.2464C29.5208 47.4093 29.7208 48.6475 27.3086 52.4899C26.1543 54.3286 25.543 55.2565 25.3662 55.4708C25.279 55.5764 25.1431 55.6772 25.0968 55.5071C24.9497 54.9661 26.0505 50.8351 24.7066 51.0484C24.1556 51.1359 23.3713 51.374 22.7029 51.8031C21.9143 52.3093 20.0707 53.2549 18.1026 54.3445C17.2906 54.7941 16.9783 55.1877 17.0012 55.0594C17.0253 54.9238 17.6076 54.2584 18.612 52.8074C19.1982 51.9606 19.8782 50.8652 20.6701 49.2412C21.4621 47.6173 22.3396 45.5283 22.9489 43.9904C23.5581 42.4526 23.8792 41.4913 24.0963 40.9224C24.3843 40.1677 24.9757 38.5462 25.6108 35.6911C25.9258 34.2753 26.1925 32.906 26.2605 31.2071Z" fill="#432626"/>
<mask id="mask0_2707_497" style="mask-type:alpha" maskUnits="userSpaceOnUse" x="17" y="29" width="26" height="27">
<path d="M26.2605 31.2071C26.4069 27.5509 35.0611 29.5402 35.0611 29.5402C35.0611 29.5402 34.99 29.9701 35.0368 32.0953C35.0837 34.2205 35.2084 38.1192 35.4085 40.8254C35.6087 43.5317 35.8763 45.001 36.3 46.4419C36.7236 47.8828 37.2157 49.2949 37.9339 50.4477C39.2931 52.6291 40.1192 53.7955 40.7234 54.1636C41.8698 54.8621 42.7078 55.3785 42.8932 55.6176C42.985 55.736 43.0691 55.9034 42.9135 55.9231C42.4199 55.9854 40.6489 56.3044 37.494 54.9466C36.103 54.348 34.5334 53.5952 33.08 51.875C30.058 48.2984 29.704 46.8773 29.5769 47.2464C29.5208 47.4093 29.7208 48.6475 27.3086 52.4899C26.1543 54.3286 25.543 55.2565 25.3662 55.4708C25.279 55.5764 25.1431 55.6772 25.0968 55.5071C24.9497 54.9661 26.0505 50.8351 24.7066 51.0484C24.1556 51.1359 23.3713 51.374 22.7029 51.8031C21.9143 52.3093 20.0707 53.2549 18.1026 54.3445C17.2906 54.7941 16.9783 55.1877 17.0012 55.0594C17.0253 54.9238 17.6076 54.2584 18.612 52.8074C19.1982 51.9606 19.8782 50.8652 20.6701 49.2412C21.4621 47.6173 22.3396 45.5283 22.9489 43.9904C23.5581 42.4526 23.8792 41.4913 24.0963 40.9224C24.3843 40.1677 24.9757 38.5462 25.6108 35.6911C25.9258 34.2753 26.1925 32.906 26.2605 31.2071Z" fill="#432626"/>
</mask>
<g mask="url(#mask0_2707_497)">
<path d="M30.1097 29.3662C30.1134 29.1953 30.1134 29.1929 30.1134 29.1904C30.3085 29.2426 30.8531 29.3628 30.9852 29.3936C31.19 29.435 31.6618 29.5789 32.6626 29.8359C34.091 30.0863 35.0147 30.2644 35.2416 30.4447C35.5511 30.6906 36.0479 31.094 36.6165 31.8795C36.9539 32.3458 37.3433 32.9728 38.3078 35.1373C39.2724 37.3018 40.7669 40.8949 42.6989 44.7101C44.6308 48.5253 46.9304 52.4439 48.0884 54.4643C49.2465 56.4847 49.2755 56.6054 49.252 56.7171C49.206 56.9364 49.2031 57.2738 48.702 57.641C48.3352 57.9099 47.8331 58.2328 45.5606 58.4172C44.7316 58.4845 43.7343 58.5178 42.6481 58.6034C41.5619 58.689 40.4215 58.8229 38.9447 58.884C37.4678 58.945 35.708 58.9336 33.9078 58.7856C32.1076 58.6376 30.3213 58.3614 28.6107 57.9207C26.9001 57.4801 25.2985 56.9275 24.3967 56.5229C23.241 56.0045 22.8272 55.8453 22.7576 55.678C22.7299 55.6115 22.7798 55.5357 23.0793 54.8299C23.3789 54.1241 23.912 52.8275 25.1383 48.5575C26.3647 44.2874 28.2277 37.2568 29.1631 33.5667C30.0985 29.8766 30.106 29.5372 30.1097 29.3662Z" fill="#7B5142"/>
</g>
<path d="M31.5 4C37.299 4 42 8.02944 42 13C42 13.4227 41.9623 13.8379 41.8965 14.2451C47.1494 15.0147 51 17.5224 51 20.5C51 23.0882 48.0907 25.3225 43.8799 26.3682C43.9581 26.7374 44 27.1152 44 27.5C44 31.6421 39.299 35 33.5 35C28.6538 35 24.5769 32.654 23.3672 29.4658C21.9882 30.4312 20.3111 31 18.5 31C13.8056 31 10 27.1944 10 22.5C10 17.8056 13.8056 14 18.5 14C19.418 14 20.3017 14.1468 21.1299 14.416C21.0448 13.9547 21 13.4818 21 13C21 8.02944 25.701 4 31.5 4Z" fill="#51B947"/>
<mask id="mask1_2707_497" style="mask-type:alpha" maskUnits="userSpaceOnUse" x="10" y="4" width="41" height="32">
<path d="M31.5 4.20801C37.299 4.20801 42 8.23745 42 13.208C42 13.6307 41.9623 14.046 41.8965 14.4531C47.1494 15.2227 51 17.7304 51 20.708C51 23.2963 48.0907 25.5305 43.8799 26.5762C43.9581 26.9454 44 27.3232 44 27.708C44 31.8501 39.299 35.208 33.5 35.208C28.6538 35.208 24.5769 32.862 23.3672 29.6738C21.9882 30.6392 20.3111 31.208 18.5 31.208C13.8056 31.208 10 27.4024 10 22.708C10 18.0136 13.8056 14.208 18.5 14.208C19.418 14.208 20.3017 14.3548 21.1299 14.624C21.0448 14.1627 21 13.6898 21 13.208C21 8.23745 25.701 4.20801 31.5 4.20801Z" fill="#51B947"/>
</mask>
<g mask="url(#mask1_2707_497)">
<path d="M23.2882 7.35016C23.6194 6.53712 24.0406 5.7413 24.0939 5.59856C24.0062 5.5244 23.457 5.76894 23.1802 5.6822C22.4489 5.49698 21.1223 5.4258 19.5707 5.52587C18.3175 5.71645 17.0415 5.81 15.9588 6.08616C15.0462 6.31895 14.1252 6.53405 12.0734 8.62856C11.4084 9.30734 10.7732 10.096 9.82858 11.7231C8.88394 13.3502 7.66679 15.7432 6.87644 17.4805C6.08609 19.2177 5.73323 20.2674 5.51693 21.1208C5.30063 21.9742 5.22324 22.612 5.19514 23.9338C5.16704 25.2557 5.18761 27.2027 5.24305 28.4384C5.2985 29.6742 5.34544 30.195 5.50159 30.6629C6.08297 32.4051 6.73079 34.0695 8.05887 35.0789C8.74171 35.5979 9.55887 36.1256 11.2673 36.5643C12.4867 36.8774 14.3994 37.2902 15.4747 37.46C16.5499 37.6298 16.7808 37.5588 16.899 37.4694C17.0172 37.38 17.0375 37.2579 17.0719 37.3024C17.2118 37.4832 17.6674 38.4303 19.787 39.442C20.6747 39.8657 22.2393 40.3842 24.3255 40.7899C25.2441 40.9686 25.9067 41.0338 27.2351 41.0207C28.5634 41.0077 30.4987 40.9191 32.1685 40.7064C33.8384 40.4938 35.2014 40.1671 36.5472 39.6816C37.8931 39.1961 39.2023 38.6053 40.064 38.0945C41.4042 37.3002 42.2739 36.7321 43.0872 35.7326C44.3795 34.1445 45.5587 32.8706 45.3135 32.759C45.2006 32.7076 44.9587 32.7861 43.0654 32.7923C41.3038 32.798 38.012 32.7831 35.6856 32.6631C33.3591 32.543 32.027 32.3686 31.0784 32.1087C29.538 31.6868 28.5116 31.3202 27.5736 30.5801C25.1154 28.6407 24.3766 26.6756 23.8859 27.0957C23.4886 27.4359 23.1678 27.9366 22.5 28.1643C21.8322 28.392 21.1717 28.3032 20.7943 28.1643C19.613 27.7294 18.2743 27.1031 17.6026 26.0863C16.7457 24.7892 15.9081 23.1563 16.0914 21.8713C16.1438 21.5039 16.2245 21.1704 16.6533 20.7634C18.0879 19.402 19.2771 18.3865 21.1223 18.3675C24.6673 18.331 25.141 18.654 25.8977 18.7916C25.9826 18.807 25.9094 18.6963 25.8172 18.5362C25.2619 17.5725 24.6136 16.6632 24.3388 16.0748C23.9935 15.3355 23.2613 13.9581 23.1678 11.8984C23.0608 9.54199 23.0595 7.9117 23.2882 7.35016Z" fill="#26751F"/>
</g>
</svg>
