<svg width="60" height="60" viewBox="0 0 60 60" fill="none" xmlns="http://www.w3.org/2000/svg">
<path d="M27.8176 13.4576C29.3081 10.6531 29.6873 10.0094 29.7006 9.98965C30.3711 8.99366 30.6875 8.62527 30.8711 8.49269C31.0547 8.35998 31.2144 7.5402 32.1072 8.3595C32.9999 9.17881 35.6143 16.2594 36.9744 19.7918C37.6584 21.5683 39.546 24.7916 41.4515 28.7644C42.7964 31.5683 43.7379 33.8582 43.6911 36.6311C43.588 42.7369 43.4746 44.6994 41.8992 46.6462C40.4422 48.4468 39.2373 49.8696 35.5967 50.5993C32.847 51.1503 28.9126 52.2229 25.0996 50.2513C21.1426 48.2053 18.5566 46.1106 17.611 43.9839C17.2315 43.1304 16.6466 40.4556 17.2814 36.8626C18.0812 32.3366 19.7007 28.1426 21.5663 25.4014C22.5681 23.9295 24.7409 19.2468 27.8176 13.4576Z" fill="#4BA0D5"/>
<path d="M28.2886 21.4824C28.9097 20.2148 29.1505 20.045 29.1664 20.0449C29.2422 20.0448 29.2795 20.1916 29.3288 20.3997C29.3782 20.6077 29.42 20.9414 29.4023 22.2757C29.3846 23.6101 29.3097 25.8764 29.2207 27.2125C29.1318 28.5485 29.0319 28.9424 28.9532 29.171C28.8745 29.3997 28.8187 29.4613 28.3928 29.2626C27.9668 29.064 27.1761 28.6467 26.7653 28.3632C26.0623 27.878 25.5214 27.5035 25.5128 27.0376C25.5107 26.9264 25.5556 26.8124 26.1186 25.7111C26.6817 24.6098 27.746 22.5899 28.2886 21.4824Z" fill="white"/>
<path d="M22.3506 35.6693C23.016 34.398 23.3774 33.7424 23.3877 33.7291C23.7823 33.2221 24.3503 33.2119 24.53 33.2216C24.9595 33.2954 25.3035 33.4232 25.6488 33.636C26.1337 34.0872 26.6716 34.911 27.5079 36.8455C27.8962 37.7437 28.5128 39.0863 29.1096 40.4591C29.7065 41.8319 30.2666 43.1936 30.5443 43.9326C30.822 44.6716 30.8323 44.792 30.7269 44.9837C30.4651 45.4597 30.2853 46.0154 29.497 46.6588C29.0923 46.9892 27.828 47.2864 26.8704 46.9139C25.9248 46.5462 25.1675 46.2314 24.7755 45.8673L24.7601 45.853C24.0917 45.2322 23.3665 44.5587 22.7842 43.6699C21.9623 42.4155 21.2994 41.4535 21.2522 40.9015C21.2027 40.3241 21.2528 39.1467 21.6386 37.6064C21.8194 36.8847 22.0281 36.2855 22.3506 35.6693Z" fill="white"/>
</svg>
