<svg width="60" height="60" viewBox="0 0 60 60" fill="none" xmlns="http://www.w3.org/2000/svg">
<path d="M16 22.0587C16.7233 22.1581 17.4514 22.2624 18.1744 22.3649C19.3322 22.529 20.4835 22.6915 21.6393 22.85C22.83 23.0041 23.8443 23.3975 25.0161 23.884C26.3005 24.407 27.6223 24.9675 29.0325 25.4079C30.476 25.8601 31.9791 26.1598 33.4797 26.3176C35.4243 26.4752 37.1308 26.7063 39.535 26.094C39.535 26.094 39.535 26.094 39.535 26.094C41.4914 25.4028 42.3767 23.6945 42.9553 22.5217C43.6863 20.673 43.4361 19.5691 43.2135 18.1305C43.0573 17.2859 42.4747 16.5186 42.0143 16.1023C41.5413 15.6588 41.1144 15.3438 40.7023 15.0135C39.3547 13.8417 37.3545 13.7748 36.0281 14.1409C34.946 14.4561 34.8077 15.0162 34.5161 15.34C34.0805 15.9144 34.0487 16.5112 34.0256 16.9355C34.0074 17.3128 34.0393 17.6901 34.1349 18.0652C34.1966 18.2979 34.2718 18.5235 34.4244 18.7794L34.4747 18.8589C34.7193 19.1372 34.9733 19.391 35.2379 19.6343L35.2686 19.6656C35.5118 19.8755 35.8018 19.9598 35.9947 20.0133C36.1173 20.0459 36.2497 20.0376 36.3658 19.9823C36.4819 19.9272 36.5717 19.8308 36.6161 19.7126C36.6604 19.5944 36.6564 19.4627 36.6053 19.3448C36.5543 19.2268 36.4601 19.1333 36.3464 19.0772C36.3464 19.0772 36.3464 19.0772 36.3464 19.0772C36.1693 18.9891 36.0769 18.9258 36.0338 18.8527L36.0645 18.8839C35.8712 18.6221 35.6875 18.352 35.5265 18.0822L35.5768 18.1618C35.5546 18.0858 35.5272 17.9454 35.5199 17.8101C35.5059 17.5855 35.5277 17.3463 35.5803 17.1184C35.6512 16.7565 35.7672 16.5215 35.8591 16.4767C36.0134 16.3197 36.1503 16.1853 36.2616 16.1037C36.3682 16.0165 36.4583 16.0238 36.3338 16.0708C37.5616 15.9477 38.4608 16.1865 39.0855 16.8437C39.4748 17.2264 39.8759 17.5975 40.1568 17.9178C40.449 18.256 40.5077 18.4127 40.5333 18.6366C40.6582 19.4935 40.5681 20.8593 40.3566 21.1816C39.7739 22.3131 39.1662 23.0729 38.5609 23.2565C38.5609 23.2565 38.5609 23.2565 38.5609 23.2565C37.4128 23.5653 35.3921 23.5669 33.6985 23.4908C32.3339 23.4294 30.988 23.2767 29.6484 23.0109C28.3319 22.7513 26.9935 22.3821 25.5983 22.0492C24.4118 21.7524 22.9974 21.4791 21.6898 21.575C20.5197 21.6416 19.3556 21.7265 18.1878 21.832C17.4587 21.8984 16.7252 21.9717 16 22.0587Z" fill="#B8D4D0"/>
<path d="M36 27.5C35.8754 27.5156 35.7559 27.5705 35.6678 27.6627C35.5796 27.7548 35.5301 27.8753 35.5301 28C35.5301 28.1247 35.5796 28.2452 35.6678 28.3373C35.7559 28.4295 35.8754 28.4844 36 28.5C36.5294 28.5567 37.0296 28.5932 37.5426 28.6256C38.4768 28.6837 39.4077 28.7185 40.3423 28.7373C42.7195 28.757 45.0032 28.492 47.2754 28.1638C48.1696 28.0255 49.0828 27.8263 50.0268 27.4024C50.9498 27.0308 52.027 26.0777 52.4837 25.2539C52.4837 25.2539 52.4837 25.2538 52.4837 25.2538C53.6932 22.9861 53.3246 21.3869 53.3798 19.7235C53.4594 18.571 52.5884 17.2024 51.9757 16.7312C51.0619 15.9183 50.3924 15.9911 49.7675 15.9268C49.1398 15.9097 48.5766 15.9627 47.9436 16.1198C47.234 16.2823 46.9888 16.8253 46.8896 17.091C46.7837 17.3922 46.7576 17.634 46.7391 17.8666C46.7091 18.3266 46.7404 18.7356 46.7823 19.1379C46.7927 19.2342 46.8041 19.3302 46.8164 19.4249L46.826 19.5356C46.8843 19.7868 47.0537 20.1039 47.2145 20.2699C47.4132 20.4904 47.6061 20.6386 47.7924 20.7856C47.8912 20.8618 48.0135 20.9081 48.1403 20.9065C48.2671 20.9049 48.387 20.8566 48.4756 20.7703C48.5642 20.684 48.6156 20.5654 48.6204 20.4387C48.6253 20.3119 48.5822 20.1885 48.5086 20.0877C48.5086 20.0877 48.5086 20.0877 48.5086 20.0877C48.3771 19.9062 48.2497 19.7259 48.1801 19.5757C48.1217 19.4479 48.1396 19.4205 48.1408 19.309L48.1505 19.4198C48.162 19.3312 48.174 19.2428 48.1867 19.1556C48.2396 18.7944 48.3039 18.4374 48.3971 18.143C48.4425 17.999 48.5011 17.8665 48.547 17.8162C48.5678 17.7922 48.5873 17.7943 48.5582 17.8431C48.5346 17.8889 48.4176 17.9901 48.2807 18.021C48.6591 18.0101 49.1346 18.0515 49.5275 18.1395C49.7249 18.1833 49.91 18.2415 50.0415 18.3057C50.1728 18.3633 50.2412 18.4579 50.1478 18.3969C50.6601 19.0391 50.6428 19.1766 50.6178 19.647C50.4971 21.185 50.3798 23.0212 49.9642 23.6253C49.9642 23.6253 49.9642 23.6253 49.9642 23.6253C49.4266 24.6364 48.2836 25.0323 46.7593 25.4034C44.5642 25.8966 42.3627 26.441 40.2072 26.8188C39.2938 26.9674 38.3852 27.1199 37.476 27.269C36.9818 27.3495 36.4754 27.432 36 27.5Z" fill="#B8D4D0"/>
<path d="M9 27.6301C8.87247 27.6401 8.75016 27.6941 8.65998 27.7869C8.56981 27.8797 8.51915 28.0026 8.51915 28.1301C8.51915 28.2576 8.56981 28.3806 8.65998 28.4733C8.75016 28.5661 8.87247 28.6201 9 28.6301C9 28.6301 9 28.6301 9 28.6301C9.7622 28.6739 10.4898 28.7155 11.2355 28.7556C11.5627 28.7734 11.8915 28.7909 12.2199 28.8082C15.0631 28.9615 17.9165 29.0918 20.7139 29.3006C22.4628 29.4421 24.1564 29.6075 25.682 30.0674C27.074 30.4493 28.3514 31.0059 30.0245 31.435C31.5823 31.8281 33.157 32.2402 34.8103 32.5894C35.8917 32.8237 37.0167 32.954 37.8319 33.16C38.7877 33.3997 39.8268 33.768 40.7991 34.1751C42.2497 34.7855 43.6533 35.6238 44.6612 36.5902C44.6612 36.5902 44.6612 36.5902 44.6612 36.5902C45.1478 36.9946 45.6286 38.4537 46.0111 39.9138C46.1258 40.2752 46.0891 40.7849 45.796 41.4892C45.6973 41.7322 45.6007 41.9189 45.523 42.0365C45.4431 42.1551 45.3837 42.2296 45.2242 42.3472C44.9076 42.5808 44.2403 42.8724 43.5983 43.1696C42.8738 43.5826 41.5902 43.4535 40.3475 42.9006C39.5902 42.6184 38.95 41.842 38.5414 40.7787C38.3517 40.3262 38.2664 39.7828 38.2622 39.1785C38.2578 39.1874 38.2525 39.1977 38.2462 39.2073C38.2189 39.2538 38.1791 39.2548 38.2298 39.1815C38.2225 39.1799 38.1191 39.2149 38.1747 39.1796C38.2156 39.1546 38.3088 39.1259 38.4074 39.1024C38.9701 38.9698 39.6136 38.9435 40.251 38.9922C40.3766 39.0027 40.505 38.9729 40.6101 38.9C40.7151 38.8272 40.7878 38.7186 40.8127 38.596C40.8376 38.4733 40.8129 38.3449 40.7446 38.237C40.6762 38.1289 40.5695 38.0514 40.4498 38.0122C40.4498 38.0122 40.4498 38.0122 40.4498 38.0122C39.7595 37.7939 39.0361 37.6482 38.2498 37.6558C38.1071 37.6592 37.9607 37.6636 37.7675 37.7023C37.5899 37.7287 37.2611 37.874 37.0868 38.0497C36.9271 38.1863 36.7032 38.4369 36.6012 38.7749C36.5773 38.8518 36.5598 38.9302 36.5485 39.0082C36.4086 39.7149 36.3462 40.517 36.511 41.341C36.7604 42.7305 37.4884 44.3875 39.0387 45.3221C40.5181 46.2415 42.5784 47.0729 44.8423 46.2918C45.5056 46.0573 46.1829 45.8844 47.0812 45.3942C48.0259 44.908 48.8352 43.826 49.1845 43.0607C49.7142 42.0218 50.1653 40.526 49.7967 38.982C49.3796 37.4294 49.2233 35.6018 47.4468 33.7196C47.4468 33.7196 47.4468 33.7196 47.4468 33.7196C45.8703 32.2246 44.125 31.2636 42.2845 30.5237C41.1185 30.0682 39.9664 29.6884 38.6738 29.411C37.436 29.1601 36.4636 29.1084 35.4803 28.9411C33.9445 28.6945 32.3561 28.3787 30.7436 28.0869C29.4826 27.8664 27.9409 27.3633 26.4009 27.0775C24.465 26.6817 22.5782 26.7 20.7714 26.7471C17.8802 26.8454 15.0393 27.0744 12.1923 27.3283C11.8641 27.3579 11.5357 27.3881 11.2094 27.4187C10.4723 27.4875 9.71914 27.5586 9 27.6301Z" fill="#B8D4D0"/>
<path d="M16 34.5163C16 34.5163 16 34.5163 16 34.5163C16.4579 34.5893 16.9194 34.6394 17.3805 34.6843C17.4578 34.6917 17.534 34.6989 17.6121 34.7057C19.4377 34.8564 21.2437 34.8606 22.949 35.0335C23.6223 35.1143 24.347 35.5091 25.2164 35.9278C26.933 36.7855 27.7384 37.5148 28.389 39.2788C28.389 39.2788 28.389 39.2788 28.389 39.2788C28.4652 39.4631 28.5059 39.6557 28.5107 39.8575C28.5131 39.9573 28.5056 40.0598 28.4911 40.1484C28.4841 40.1922 28.4749 40.2333 28.4692 40.2579C28.4727 40.2717 28.4309 40.3248 28.5405 40.1677C28.659 40.1425 28.1709 40.4649 27.5921 40.5701C27.0067 40.7029 26.3262 40.776 25.6275 40.838C25.5754 40.8543 25.5887 40.869 25.6005 40.8982C25.6114 40.9261 25.5779 40.9404 25.4485 40.8276C25.2152 40.7653 25.0116 40.1595 24.9177 39.4404L24.9001 39.6C24.8995 39.5665 24.9001 39.5337 24.9018 39.5012C24.9101 39.3452 24.9472 39.1915 25.0347 39.0181L24.9935 39.0643C24.9981 39.0414 24.9314 39.0558 24.9931 39.0134C25.042 38.9798 25.1272 38.9439 25.2151 38.911C25.3315 38.8696 25.4371 38.7949 25.5066 38.6903C25.576 38.5857 25.6039 38.4613 25.5835 38.3412C25.5631 38.2211 25.4957 38.1129 25.3955 38.0371C25.2954 37.9613 25.171 37.9257 25.0476 37.9251C25.0476 37.9251 25.0476 37.9251 25.0476 37.9251C24.9311 37.9273 24.814 37.9302 24.6648 37.9574C24.5292 37.9743 24.272 38.0846 24.1345 38.2137L24.0933 38.2598C23.8682 38.4716 23.6565 38.7579 23.5208 39.0777C23.4923 39.1438 23.4667 39.2107 23.4439 39.2781L23.4263 39.4377C23.3468 40.1568 23.1152 41.1744 23.9129 42.233C24.023 42.3851 24.248 42.6578 24.5793 42.8508C24.9092 43.0479 25.2841 43.133 25.5897 43.1543C26.3402 43.2381 27.1164 43.297 27.9692 43.2295C28.7958 43.1182 29.8629 43.0959 30.8904 41.8901C31.1152 41.5705 31.1522 41.4368 31.2255 41.2628C31.288 41.1003 31.3336 40.9474 31.3706 40.7957C31.4437 40.494 31.4811 40.1962 31.4888 39.8962C31.5045 39.2967 31.3921 38.6882 31.1612 38.1321C31.1612 38.1321 31.1612 38.1321 31.1612 38.1321C30.7921 37.2092 30.1841 35.9976 29.2097 35.168C28.2538 34.3327 27.1931 33.8735 26.1781 33.5359C25.2731 33.2613 24.192 32.8486 22.9265 32.9669C21.0509 33.1794 19.3039 33.6758 17.5662 34.1311C17.4909 34.1502 17.4173 34.1691 17.3427 34.1881C16.8971 34.3007 16.4515 34.416 16 34.5163Z" fill="#B8D4D0"/>
</svg>
